<?xml version="1.0" encoding="utf-8"?>
<!-- Generator: Adobe Illustrator 24.0.1, SVG Export Plug-In . SVG Version: 6.00 Build 0)  -->
<svg version="1.1" id="Capa_1" xmlns="http://www.w3.org/2000/svg" xmlns:xlink="http://www.w3.org/1999/xlink" x="0px" y="0px"
	 viewBox="0 0 115.1 96.1" style="enable-background:new 0 0 115.1 96.1;" xml:space="preserve">
<style type="text/css">
	.st0{fill:#F2F2F2;}
	.st1{fill:#1D2B84;}
	.st2{clip-path:url(#SVGID_2_);}
	.st3{fill:#FFFFFF;}
	.st4{fill:#0093DD;}
	.st5{fill:#DB251B;}
</style>
<title>DGTSDE_Logo_v2-Curva</title>
<circle class="st0" cx="55.3" cy="48.1" r="48.1"/>
<g>
	<circle class="st1" cx="55.9" cy="48.3" r="40.7"/>
</g>
<g>
	<defs>
		<circle id="SVGID_1_" cx="55.9" cy="48.3" r="40.7"/>
	</defs>
	<clipPath id="SVGID_2_">
		<use xlink:href="#SVGID_1_"  style="overflow:visible;"/>
	</clipPath>
	<g class="st2">
		<rect x="12" y="34.2" class="st3" width="86.5" height="53.5"/>
		<path class="st4" d="M10.4,89.9C21.2,78.5,55.4,57.6,55.4,48S42.2,34.2,42.2,34.2H10.4V89.9z"/>
		<path class="st4" d="M45.5,33.9H100V89H73c0-12.6,4.2-9.6,4.2-25.8C77.2,49.5,55.7,33.9,45.5,33.9z"/>
		<path class="st5" d="M25.7,89C32.3,76.4,61,65,61,51.9S49,36.3,49,36.3c12,4.2,22.2,13.8,22.2,26.3S61,80,61,89L25.7,89z"/>
	</g>
</g>
<path class="st0" d="M0,37.3C0.6,29.9,4.4,10,18.1,10c4.2,0,4.4-0.2,11.8,0c1.4,0,3.8,1.3,5.3,1.4c23.5,1.6,22.5,5.6,26,6.4
	c8.7-1.7,18.7-1.5,24.8-0.2c0.9,0.2-3.7-3.5-3-3.3c1.5,0.4,2.5,0.6,2.9,0.7c6.8,0.8,13,4,17.6,9.1v13.1L0,37.3z"/>
<path class="st5" d="M96.7,24.9c-4.2-3.5-8.8-5.5-13.4-5.6l0,0H65.8c-1.6,0.2-3.1,0.9-4.2,2c-5.5-4.2-11.4-6.4-17.2-6.6l0,0h-25l0,0
	h-0.1C14,15,9.3,20.8,6.7,30.4l0.2,1.8h89.8L96.7,24.9z M29.9,16.5c-1,0.5-1.9,1.1-2.7,1.8L26.9,18C27.7,17.2,28.8,16.7,29.9,16.5
	L29.9,16.5z M32.5,17.2c-1.4,0.7-2.7,1.5-4,2.4C29.6,18.6,31,17.8,32.5,17.2L32.5,17.2z M26.1,16.4c-0.2,0.1-0.4,0.3-0.5,0.5
	c-0.2-0.2-0.4-0.3-0.6-0.5H26.1z M25.7,19.3l0.2,0.2c-0.4,0.4-0.8,0.9-1.2,1.3C25,20.3,25.3,19.8,25.7,19.3L25.7,19.3z M21.5,16.6
	c1,0.3,2,0.8,2.9,1.5c-1.1,1.4-2.1,3-2.9,4.7V16.6z M18.9,30.4H8.5c1.4-4.8,3.3-8.5,5.5-10.9l4.9,10.8L18.9,30.4z M19.7,27.4
	l-0.1,0.3l-4.3-9.5c1.1-1,2.6-1.6,4.1-1.8h0.3V27.4z M21.5,30.4v-0.6c1.7-2.9,3.9-5.6,6.6-7.7c1.8,2.6,3.3,5.4,4.5,8.3H21.5z
	 M34.9,30.4h-0.4c-1.3-3.3-3-6.5-5-9.4c1.6-1.1,3.3-2.1,5.2-2.8l0.3,0.2L34.9,30.4z M36.6,30.4v-10c2.2,3.1,3.9,6.4,5.2,10H36.6z
	 M42.5,27.4c-1.3-3.5-3.3-6.8-5.8-9.7v-0.2c1-0.3,1.9-0.5,2.9-0.7c1,0.3,2,0.6,2.9,1.1V27.4z M49.5,30.4h-5.2V18.8
	c2,1.3,3.7,2.9,5.3,4.7L49.5,30.4z M49.5,20.8c-1.5-1.6-3.3-3-5.2-4.1v-0.3c1.8,0.1,3.5,0.3,5.3,0.7L49.5,20.8z M51.2,30.4v-4.8
	c1.1,1.5,2.2,3.1,3.2,4.8L51.2,30.4z M55.3,28.5c-1.2-2-2.6-3.9-4.1-5.7v-5.2c1.4,0.5,2.8,1,4.1,1.7V28.5z M57.1,20.2
	c1.2,0.7,2.3,1.4,3.4,2.3c-1.6,2.1-2.7,4.5-3.4,7V20.2z M61.7,30.4h-3.1c0.6-2.4,1.7-4.6,3.1-6.6V30.4z M65.3,30.4h-1.8v-4.1
	L65.3,30.4L65.3,30.4z M65.9,27.4l-0.1-0.2l0.1,0.1V27.4z M65.9,24.8c-0.7-0.6-1.3-1.2-2-1.8l-0.4-1c0.7-0.6,1.6-0.9,2.5-1
	L65.9,24.8z M67.7,21.2c0.5,0.2,0.9,0.4,1.4,0.7c-0.5,0.7-1,1.3-1.4,2.1V21.2z M67.7,30.3V30l0.3-0.5l0.7,0.8H67.7z M70.9,30.3
	c-0.6-0.8-1.3-1.6-1.9-2.3c0.9-1.1,1.8-2.1,2.9-3.1c1.1,1.7,2.1,3.5,2.9,5.4H70.9z M76.4,29.7c-0.9-2-1.9-4-3.2-5.8
	c1-0.7,2-1.3,3.1-1.7L76.4,29.7z M78.2,30.3v-6.1c1.2,1.9,2.2,3.9,3,6.1L78.2,30.3z M81.7,27c-0.9-2-2-3.8-3.4-5.4
	c0.5-0.2,1.1-0.3,1.7-0.4c0.6,0.2,1.2,0.4,1.8,0.6L81.7,27z M86.6,30.3h-3.1v-7.5c1.1,0.8,2.2,1.8,3.1,2.8V30.3z M86.6,23.1
	c-0.8-0.8-1.8-1.5-2.7-2.2c0.9,0.1,1.8,0.2,2.7,0.4V23.1z M88.2,30.4v-2.4c0.5,0.8,1.1,1.6,1.6,2.5L88.2,30.4z M90.5,28.2
	c-0.7-1.1-1.5-2.2-2.3-3.2v-3.1c0.8,0.3,1.6,0.6,2.3,1V28.2z M92.3,30.4v-6.5c0.9,0.6,1.8,1.2,2.7,1.9v4.6L92.3,30.4z"/>
</svg>
