<?xml version="1.0" encoding="utf-8"?>
<!-- Generator: Adobe Illustrator 24.0.1, SVG Export Plug-In . SVG Version: 6.00 Build 0)  -->
<svg version="1.1" xmlns="http://www.w3.org/2000/svg" xmlns:xlink="http://www.w3.org/1999/xlink" x="0px" y="0px"
	 viewBox="0 0 1100 800" style="enable-background:new 0 0 1100 800;" xml:space="preserve">
<style type="text/css">
	.st0{fill:#FFFFFF;}
	.st1{fill:#F1F2F2;}
	.st2{fill:#3B455A;}
	.st3{fill:#2E3644;}
	.st4{fill:#CCD2D9;}
	.st5{fill:#AA6755;}
	.st6{fill:#EFEFEF;}
	.st7{fill:#D34E4E;}
	.st8{fill:#7FC5A3;}
	.st9{fill:#EAC1A4;}
	.st10{fill:#40495F;}
	.st11{fill:#474EBB;}
	.st12{fill:#8EC3CB;}
	.st13{fill:#EBCEB1;}
	.st14{fill:#EBB044;}
</style>
<g id="Background">
</g>
<g id="Shadow">
	<g>
		<path class="st1" d="M517,668.1c-29.1,0.1-58.2,0.8-87.3,3.9c-11,1.2-21.7,3.8-32.7,4.8c-21.9,2.1-43.5,6-65.5,7.8
			c-17.7,1.4-35.5,2.3-53.2,4.1c-16.6,1.7-34.9,1.3-51.4-1.5c-12.2-2.1-24.4-3.3-36.4-6.7c-13.4-3.8-27.9-6.5-41.9-6.4
			c-19.9,0.1-39.3,0.2-58.3,6.8c-6.7,2.3-14.9,6.2-19.9,11.1c-11.6,11.3-13.2,39.4-1.6,51.1c19.5,19.7,61.2,27.4,88.6,27.8
			c30,0.4,59.2-1.8,89.2-3c27.9-1.2,55.8-2.9,83.7-2.8c57.1,0.1,114.3,0,171.3-3.7c53.6-3.5,107.3-2.3,161-2.3
			c55.1,0,109.7,0.4,164.4,7.5c23.8,3.1,48.1,4.2,72,6.3c21.4,1.9,42,0,63.4-1.8c17.9-1.5,35.7-6,52-13.5
			c12.9-6,35.9-24.5,39.8-38.8c11.1-39.9-156.2-39-181.9-38.9c-28.7,0.1-57.7,1-86.4,0c-12.1-0.4-24-2.7-35.8-5.2
			c-11.7-2.5-23.6-1.9-35.5-2.9c-49.7-4.4-99.4-3.7-149.2-3.7C549.5,668.2,533.2,668.1,517,668.1z"/>
	</g>
</g>
<g id="Object">
	<g>
		<g>
			<g>
				<polygon class="st2" points="286.8,571.7 289.3,631.2 281.8,732.3 270.6,733.1 256.9,641.2 238,563.5 				"/>
				<polygon class="st3" points="271,737.9 283.6,743.1 289.2,736.6 282.7,730.9 270.5,731.8 				"/>
			</g>
			<g>
				<polygon class="st2" points="207.1,550.6 204.6,595.6 212,729.3 223.2,729.9 240.1,642.2 255,546 				"/>
				<polygon class="st3" points="222.9,734.6 210.4,740.1 204.6,733.7 211,727.9 223.2,728.5 				"/>
			</g>
			<g>
				<path class="st4" d="M272.6,418.1l-35.2-3.8c0,0-19.6,2.1-32.8,48.5c-7.4,25.8-9.6,66.6-10.2,97.6c0.8,4.4,5.7,23.8,26.1,20.5
					c35-5.7,53.7-11.3,68.9-8.5c13,2.8,11.9-15.1,10.5-28.7l-5.2-42.2L272.6,418.1z"/>
			</g>
			<g>
				<path class="st5" d="M265.8,374.3c-8.9-2-18-3.7-26.9-1.9c-1.9,0.4-4,1.1-5.1,2.7c-0.4,0.6-0.6,1.4-0.8,2.1
					c-2.2,8.3-5.1,20.7,0.4,28.3c1,1.5,2.4,2.6,4,3.6c2,1.3,4.2,2.1,6.6,2.6c-0.5,2.1-1.1,4.1-2,6c2,3.1,11.5,3.4,13.2,0.5
					c0.1-2.5,0.2-5.1,0.3-7.6c1.2-0.5,2.3-1,3.3-1.7c4-2.7,6.7-6.7,8.3-11.2c1.7-4.9,4.1-9.6,5.6-14.6c0.6-1.8,1-3.9,0-5.6
					c-1-1.8-3.2-2.4-5.2-2.8C267,374.6,266.4,374.5,265.8,374.3z"/>
				<path class="st2" d="M236.3,379.1c4.4-2.8,11-4,15.1-3.7c12.5,0.9,17,10,17.7,21.5c3.4-4.4,9.9-9.8,10.3-15.5
					c0.3-4.6-0.3-10.9-2.9-14.8c-2.4-3.7-8.6-5.7-12.2-7.9c-3.5-2-6.9-4.1-10.4-6.1c-0.7-0.4-1.5-0.9-2.3-1c-1-0.2-2,0.1-2.9,0.3
					c-8.2,2.1-16.3,4.2-24.5,6.3c-1.6,0.4-3.4,1-3.9,2.5c-0.4,0.9-0.1,1.9,0.1,2.9c0.9,4.2,2.7,8.6,3.1,12.9
					c0.5,2.5,2,15.3,6.4,13.8c1.3-2.1,1.5-4.7,2.5-7C233.1,381.6,234.5,380.2,236.3,379.1z"/>
			</g>
			<polygon class="st4" points="237.5,414.3 224.5,418.3 177,468 174.2,484.4 196.9,521.9 203,508.1 193.4,480.4 208.6,469.7 
				229,423.9 			"/>
		</g>
		<g>
			<polygon class="st6" points="647.8,32.6 513.3,34 419.1,130 420.5,264.5 516.5,358.7 651,357.4 745.2,261.3 743.9,126.8 			"/>
			<polygon class="st7" points="733.2,131.3 643.5,43.4 517.8,44.6 429.9,134.3 431.1,260 520.9,348 646.5,346.7 734.5,257 			"/>
			<g>
				<path class="st0" d="M515.6,179.8l0,1.3l-14.1,0.1l0-1c-0.1-6.3-3.9-10.2-10.1-10.2c-6.7,0.1-10.3,3.4-10.3,8
					c0.1,15,36,5.8,36.3,33c0.2,16.9-10.6,23.6-25.9,23.8c-13.6,0.1-25.7-7.5-25.8-22.7c0-0.9,0.1-1.8,0.1-2.4l14.4-0.1
					c0,0.2-0.1,1.2-0.1,1.7c0.1,7,4.4,11.7,12,11.6c8.3-0.1,11.2-4.5,11.1-8.9c-0.2-17.6-36-6.8-36.3-34.9
					c-0.1-14,11.4-20.8,24.5-21C504.5,158.1,515.5,164.6,515.6,179.8z"/>
				<path class="st0" d="M573.4,171l-18.3,0.2l0.6,61.7l-13.8,0.1l-0.6-61.7l-18.3,0.2l-0.1-12.3l50.5-0.5L573.4,171z"/>
				<path class="st0" d="M639,195.1c0.3,26.1-11.3,38.4-30.4,38.6c-19.1,0.2-30.9-11.9-31.1-38c-0.3-26.1,11.3-38.4,30.4-38.6
					C627,156.9,638.8,169,639,195.1z M591.7,192.9l0.1,5.4c0.1,14.8,5.7,23.7,16.7,23.6c11-0.1,16.4-9.1,16.3-23.9l-0.1-5.4
					c-0.1-14.8-5.7-23.7-16.7-23.6C597,169.1,591.6,178.1,591.7,192.9z"/>
				<path class="st0" d="M663.1,203.2l0.3,28.7l-13.8,0.1l-0.7-74l26.4-0.3c15.3-0.2,23.3,9.2,23.4,22c0.1,13.9-9.1,23.2-23,23.3
					L663.1,203.2z M662.8,170.1L663,191l11.2-0.1c6.7-0.1,10.3-4.2,10.3-11c-0.1-6-3.9-9.9-10.5-9.8L662.8,170.1z"/>
			</g>
		</g>
		<g>
			<g>
				<polygon class="st3" points="813,728 813.9,735 800.8,743.8 792.9,737.7 799,729.8 812.1,721 				"/>
				<g>
					<polygon class="st4" points="813.5,725.6 803.3,636 815.5,535.8 812.8,514.4 758.3,512.4 756.3,547.1 765.5,636.2 799.9,730.2 
											"/>
				</g>
				<g>
					<polygon class="st4" points="718.3,522.4 718.2,612.8 736.4,729.2 749.5,729 756.7,621.4 773.5,513.7 					"/>
					<polygon class="st3" points="749.5,734.6 735.4,741.8 728.2,734.8 735.2,727.6 749.4,727.5 					"/>
				</g>
				<g>
					<path class="st8" d="M821.2,553.1c-0.1-3.9-0.3-7.2-0.4-8.4c-0.3-10.5-1.2-21-2.5-31.4c-1.2-9.3-2.7-32.6-4.3-41.9
						c-1.3-7.7-5.9-26.8-9.3-33.9c-8.3-17.7-5.7-19.3-42.1-24.6c-15.9-2.3-19.7,7.6-32.7,19c-1.3,1.1-1.2,7.8-1.5,9.6
						c-0.5,3.1-1.1,6.2-1.7,9.4c-0.5,2.4-1.1,4.9-1.7,7.3l0,0c0,0-10.9,49.7-18.2,60.3c-7.2,10.6-22.2,25.3,2.8,34.4
						c4.4,1.4,8.9,2.8,13.5,3.5c0,0,20.4-2.3,30.9-2.2c9.7,0.1,19.4,1.1,28.9,2.7c6.4,1.1,12.9,2.6,18.5,5.6c5.4,2.8,9.3,7,14.9,9.9
						c0.5,0.3,1.1,0.6,1.7,0.5C821.3,572.5,821.4,561.4,821.2,553.1z"/>
				</g>
				<g>
					<path class="st9" d="M762.6,418c1.8,0.9,6.2,1.2,10.7-0.5c0.9-0.4,1.5-1.2,1.5-2.2c0-2.7-0.3-5.5-0.7-8.2
						c3.4-1.2,7.3-3,7.9-6.5c0.2-1.1,0-2.3-0.2-3.4c-0.8-4.6-1.6-9.2-2.4-13.8c-0.3-1.6-0.6-3.2-1.4-4.6c-1.5-2.4-4.5-3.4-7.3-3.9
						c-7.1-1.2-14.9,0.3-20.4,5c-1.5,1.2-2.8,2.7-3.5,4.6c-1,2.8-0.3,5.9,0.5,8.8c0.7,2.7,1.4,5.3,2.1,8c0.8,3,2,6.5,4.9,7.7
						c1.6,0.6,3.4,0.4,4.8,1.3C761.7,411.6,761.4,415.3,762.6,418z"/>
					<path class="st2" d="M721.5,372c-0.7-1.2-1.5-2.3-2.3-3.3c-1.8-2.3-4.1-4.2-5.6-6.7c-1.5-2.5-2-5.9-0.2-8.2
						c1.1-1.5,3-2.2,4.8-2.8c5.9-1.7,12.3-1.9,18.3-0.3c5.7,1.5,10.8,3.9,16.5,1.7c5.4-2,9.3-1.2,14.9,0.8
						c6.1,2.2,14.3,2.7,19.8,5.8c2.3,1.3,4.1,3.3,5.6,5.5c5,7.7,5,18.2,0.1,25.9c-1.1,1.7-2.4,3.3-3.8,4.8c-2.9,3.1-6.3,7-10.3,8.1
						c-0.1-3.5,3.1-14.7,0.4-17.6c-4.3-4.6-14.1-3-19.4-1.9c-5.8,1.2-11,5.4-16.8,6.3c-4.2,0.6-9.5-1.4-13-3.6
						C726.1,384,724,376.2,721.5,372z"/>
				</g>
				<polygon class="st8" points="792.9,419.8 815.5,439.6 840.8,492.8 808.9,530.8 803.4,509.5 				"/>
			</g>
			<g>
				<polygon class="st9" points="646,435 634.8,427.8 637.7,422.8 646.5,426.1 646.7,423.1 655.6,430.5 653.3,436.1 				"/>
				<polygon class="st8" points="751.5,414.6 692.7,438.7 655.6,430.5 652,437.6 685.8,462.5 732.4,457 				"/>
			</g>
		</g>
		<g>
			<g>
				<polygon class="st3" points="567.2,733.9 566.9,740.1 578.8,746.8 585.3,741 579.5,734.6 567.5,727.8 				"/>
				<polygon class="st10" points="557.4,547.3 556.4,566 577.2,648.2 566.6,731.9 578.7,735 612.2,634.4 612.8,604.1 604.5,541.9 
									"/>
			</g>
			<g>
				<polygon class="st10" points="649.2,545.6 658.5,623.6 654.6,725.9 643.3,727.1 626.2,634.9 600.7,543.7 				"/>
				<polygon class="st3" points="643.9,731.9 656.8,736.7 662.2,729.9 655.4,724.5 643.2,725.8 				"/>
			</g>
		</g>
		<g>
			<path class="st11" d="M653.8,532.6c-11.7-23.7-16.3-49.8-22.4-75.4c-1.8-7.6-3.7-15.3-7.9-21.8c-4.8-7.5-11.5-10.9-18.9-12.2
				c-9.4-1.6-20,0.1-29.4,0.8c-5.7,17.8-9.4,7.7-16.1,25.1c-1.4,3.6-5.3,34.9-6.8,38.5v0c0,0-15.4,48.1-10.4,86.2
				c0,0.4,0.1,0.7,0.1,1.1c1,0.2,1.9,0.3,2.8,0.5c13.3,2.7,26.8,4.1,40.3,4c12-0.2,24-1.6,35.7-4.5c16-3.9,34.9-2.3,48-12.9
				C665,554.3,657.6,540.4,653.8,532.6z"/>
		</g>
		<g>
			<polygon class="st11" points="516.4,429.4 529.5,358.2 540.7,360.3 541.2,414 			"/>
		</g>
		<polygon class="st11" points="516.4,429.4 581.5,471.8 572.2,428.4 532.3,410.1 		"/>
		<g>
			<path class="st5" d="M600.7,393c-8.4-12.7-30.2-12-30.5,5.5c-0.1,5.3,0.5,10.7,2.8,15.4c2.3,4.7,6.7,8.7,11.9,9.5
				c0,0,0.1,0,0.1,0c0.2,1.3,0.3,2.7,0.5,4c0,0.3,0.1,0.6,0.3,0.8c0.3,0.2,0.6,0.2,1,0.2c1.6-0.2,3.2-0.4,4.8-0.6
				c0.8-0.1,1.6-0.2,2.3-0.6c1.5-1,1.6-3.1,1.2-4.8c-0.1-0.4-0.2-0.8-0.3-1.2C603.1,415.5,606.2,401.3,600.7,393z"/>
			<g>
				<path class="st2" d="M566.1,378c-3.8,0.9-5.5,5.6-8.1,8.7c-2.2,2.6-5.1,4.3-7.5,6.6c-2.4,2.4-4.2,6.1-2.9,9.5
					c-3.5-0.4-7.3-0.7-10.3,1.2c-3,1.9-4.5,7-2,9.7c2.3,2.4,6.3,1.6,8.7,4c3.7,3.7,1.1,12.7,5.9,14.3c1.2,0.4,2.4,0.1,3.6,0.5
					c1.4,0.5,2.4,1.9,3.4,3.1c4.6,5.5,12.6,7.1,18.6,3.8c3.2-3.4,4.8-8.4,4.5-13.2c-0.4-5.9-3.9-6.6-6.3-11.3
					c-2.6-5.2-3.1-11.5-1.4-17c1.1-3.6,3.4-7.1,6.5-8.7c1.3-0.7,1.3,0.6,2.4-1c0.5-0.7,0.7-2.7,0.6-3.6
					C577,383,571.1,376.9,566.1,378z"/>
				<path class="st2" d="M606.9,369.7c2.1-0.2,4.1-1.1,6.1-1c3.1,0.1,4,2.9,5.7,5.1c1.9,2.3,4.5,5.4,7.1,6.8c1.8,1,3.9,1.1,5.9,1.7
					s4.1,1.7,4.9,3.8c0.7,2,0.1,4.3,0.7,6.3c0.9,3,2,4.3,2.3,7.7c0.1,1.7,0.3,3.6-0.5,5.1c-1,2-3.2,2.8-5.2,3.2
					c-2,0.4-4.2,0.7-5.8,2c-3.5,3-1.2,6.8-0.9,10.7c0.4,5.9-4.5,11.4-9.9,11.3c-4.6,0-8.7-3.7-10.3-8.3c-0.8-2.3-0.7-4.8-1.6-7.1
					c-0.8-2.2-3.2-4.8-1.9-7.3c0.3-0.6,0.9-1.1,1.1-1.7c0.2-0.5,0.2-1.1,0.1-1.7c-0.3-2-1.5-3.8-3.1-4.8c-1.2-0.7-2.5-1-3.5-2
					c-1.1-1.2-1.3-2.9-1.8-4.5c-1.2-3.8-4.7-6.6-8.3-6.8c-2.4-0.1-4.4,0-6.8-0.7c-0.4-0.1-5.8-2.1-5.6-1.3c-0.3-1.4,0-2.9,0.3-4.3
					c0.6-2.3,1.4-4.6,2.8-6.3c4.6-5.7,8,2.1,12.3-0.8c1-0.7,1.5-2.1,2.3-3.1c1.5-1.9,4-2.5,6.4-2.4
					C602.2,369.3,604.6,369.9,606.9,369.7z"/>
			</g>
		</g>
		<g>
			<g>
				<path class="st11" d="M623.4,463.3c1.2,5.4,5.7,10.6,9.6,16.2c4.6,6.6,9.3,13.3,13.9,19.9l-15.1,47.8l9.4,3.2l27.2-47.7
					c0-19-17-28.8-21.5-39.5c-2.3-5.6-20.2-22.8-23.5-27.8c-4.9-7.4,1.8,5.1-4.2,11.2C614.3,451.6,622.4,459,623.4,463.3z"/>
			</g>
			<polygon class="st5" points="638.7,553.3 636.7,555.9 632.2,554.8 628.4,557.3 627.5,554.9 634.1,548 639.1,549.7 			"/>
		</g>
		<polygon class="st5" points="532,354.5 536.9,346.4 539.4,352.1 542.3,350.2 543.3,353.4 539.7,360.2 532.1,358.7 		"/>
		<g>
			<polygon class="st3" points="421.2,721.5 433.7,728.3 432.6,734.2 410.5,731.1 411.7,722.7 			"/>
			<polygon class="st3" points="364.9,727.9 356.2,727.8 354.1,735.1 354.3,735.2 354.3,735.2 368.7,743.5 375.5,744.2 376.3,736.4 
				374.4,735 			"/>
			<path class="st11" d="M391.6,589.6c1.4-0.1,5.2,49.7,5.2,49.7l-27,90.6l-15.6-3.1l9.5-90.5c0,0-32.9-38-23.4-66.3
				C354.6,577.1,391.6,589.6,391.6,589.6z"/>
			<path class="st11" d="M430.5,590.1l3.1,44.5L425,723l-16-0.8c0,0-3.9-83.8-5.4-85.5c-1.6-1.7-15.2-45.7-15.2-45.7L430.5,590.1z"
				/>
			<g>
				<path class="st12" d="M409.4,610.4c-50.9-0.9-54.6-26.6-65.8-29.4c-11.2-2.8-5.4-16.1-5.4-16.1s2.1-5.9,3-9.1
					c6.5-22.4,26.1-51.1,26.1-51.1c9.7-13.2,19.4-24.9,27.8-31.9c24.9-20.9,51.6-21.9,51.6-21.9c38.5,12,24.9,30.1,25.3,34.9
					c-12.6,11.6-21.8,29-28.6,47.6c-3.2,9.9-6.9,26.9-4.3,47.7c0.8,6.6,1.8,12.4,2.8,17.4C442.3,604.9,436,610.8,409.4,610.4z"/>
				<path class="st0" d="M447,454.9c0,0,8.6-4.7,13.9,3.5c6.4,9.9-29.9,54.6-29.1,150c-9.5,1.9-34.1,6.5-59.4-5.4
					C378.1,574.6,402.9,489,447,454.9z"/>
			</g>
			<polygon class="st13" points="482.3,595.4 492.3,604.7 496.4,600.6 491,592.7 493.8,591.7 484.4,584.9 479.5,588.5 			"/>
			<path class="st12" d="M472.1,468.3l3.5,8.1l-3.3,59.2c0,0,17.5,50.7,17.1,50.7c-0.5,0-11.8,3.8-11.8,3.8l-25.6-51.2v-31.3
				L472.1,468.3z"/>
			<g>
				<path class="st2" d="M465.8,424.7c4.3,3.4,8,10.5,6.6,16.1c-0.7,2.7-2.7,4.5-3.3,7.5c-1.3,5.8-11.3,10-7.1,16.7
					c2.2,3.4,6.4,4.9,10.3,6.1c0.5,0.1,1,0.3,1.5,0.2c0.8-0.2,1.3-1,1.5-1.8c0.1-0.8,0-1.6-0.1-2.4c-0.9-8.5,4.8-16.9,7-24.9
					c2.1-8,2-17.1-3.5-23.7c-4.7,0.4-6.6-0.5-9.6,3.2L465.8,424.7z"/>
				<path class="st9" d="M455.7,458.5c5.6,0.4,11.1-2.6,14.6-7c3.6-4.4,5.4-9.9,6.6-15.4c3.9-18.3-18.6-24.2-30.4-13
					C436.3,432.9,439.4,457.3,455.7,458.5z"/>
				<path class="st2" d="M427.8,455.1c3-0.2,6-0.5,8.6-2.5c4.3-3.1,6.9-10.1,9.5-14.6c2.8-4.7,6-9.7,11.1-11.5
					c3.4-1.2,6.4-0.4,9.5,0.9c2.2,0.9,1.9,1.7,4.2,1.3c1.8-0.3,4.1-2.4,5-3.9c1.6-2.4,1.7-5.6,0.9-8.3c-1.3-4.2-3.8-7.1-7.8-8.9
					c-13.9-6.2-27.9-2.3-37.6,9.7c-4.7,5.8-6.3,13.7-11,19.2c-2.9,3.4-6.5,4.9-9.3,8.7c-7.2,9.7-18.9,21-23.2,32.4
					c-0.2,0.4-0.3,0.9-0.1,1.3c0.4,0.8,1.6,0.5,2.4,0.1c4.8-2.4,9.5-4.8,14.3-7.1c1.9-0.9,3.8-1.9,5.3-3.3c3.8-3.5,5.2-9.6,9.8-11.9
					C422.3,455.4,425,455.3,427.8,455.1z"/>
			</g>
			<g>
				<polygon class="st12" points="408.3,479.2 369.9,470.2 359.7,419.1 372.4,420.3 382.2,453.6 432,455 434.8,458.8 				"/>
			</g>
		</g>
		<path class="st13" d="M370.4,420.1l-1.3-13.4l-9.5-7.2l-0.6,3.9l3.3,3.3c0,0,0.8,3.9,3.2,5.9c-0.3,2.2-2.1,7-2.1,7L370.4,420.1z"
			/>
		<g>
			<path class="st14" d="M1011.6,464.7L894.9,348c-9.8-9.8-25.7-9.8-35.5,0L742.7,464.7c-9.8,9.8-9.8,25.7,0,35.5l116.7,116.7
				c9.8,9.8,25.7,9.8,35.5,0l116.7-116.7C1021.5,490.4,1021.5,474.5,1011.6,464.7z"/>
			<path class="st2" d="M931.6,492.2v-41.4c0-30-24.4-54.5-54.5-54.5c-30,0-54.5,24.4-54.5,54.5v95.5h26.7v-95.5
				c0-15.3,12.5-27.8,27.8-27.8c15.3,0,27.8,12.5,27.8,27.8v41.4h-28.6l41.9,54.1l41.9-54.1H931.6z"/>
		</g>
		<g>
			<path class="st6" d="M576.3,512.3c-19.3-19.3-44.9-29.9-72.1-29.9c-27.2,0-52.9,10.6-72.1,29.9c-19.3,19.3-29.9,44.9-29.9,72.1
				s10.6,52.9,29.9,72.1c19.3,19.3,44.9,29.9,72.1,29.9c27.2,0,52.9-10.6,72.1-29.9c19.3-19.3,29.9-44.9,29.9-72.1
				S595.5,531.6,576.3,512.3z"/>
			
				<ellipse transform="matrix(0.7071 -0.7071 0.7071 0.7071 -265.6036 527.6629)" class="st7" cx="504.1" cy="584.4" rx="94.8" ry="94.8"/>
			<rect x="431.9" y="569.6" class="st0" width="144.6" height="29.8"/>
		</g>
		<polygon class="st5" points="321.3,324.8 324.6,308.9 318.2,303.1 313.4,308.8 312,315.3 307.9,316.1 309.9,327.2 		"/>
		<polygon class="st4" points="272.1,418.2 301.1,397.6 309.9,327.2 321.3,324.8 320.8,398 312.8,414.6 278.7,445.7 		"/>
		<g>
			
				<ellipse transform="matrix(0.7071 -0.7071 0.7071 0.7071 -303.9367 268.2433)" class="st2" cx="171.8" cy="501" rx="75.9" ry="75.9"/>
			<path class="st0" d="M211.5,487l-36.4-28.2v18.5H165c-18.1,0-32.8,14.7-32.8,32.8v33h19.4v-33c0-7.4,6-13.4,13.4-13.4h10.1v18.5
				L211.5,487z"/>
		</g>
		<g>
			<path class="st14" d="M391.3,328.5L279.2,126.7c-5.1-9.2-18.2-9.4-23.6-0.4l-118.7,198c-5.4,9,1,20.4,11.4,20.6l230.8,3.8
				C389.7,348.9,396.4,337.6,391.3,328.5z"/>
			<g>
				<path class="st2" d="M256.5,279.4l-7.4-89l34.3,0.7l-10.1,88.5L256.5,279.4z M249.7,291.8l29.9,0.5l-0.5,29.6l-29.9-0.5
					L249.7,291.8z"/>
			</g>
		</g>
	</g>
</g>
</svg>
