<svg id="Capa_1" data-name="Capa 1" xmlns="http://www.w3.org/2000/svg" xmlns:xlink="http://www.w3.org/1999/xlink" viewBox="0 0 445.74 96.14"><defs><style>.cls-1{fill:#fff;}.cls-2{fill:#f2f2f2;}.cls-3{mask:url(#mask);}.cls-4{fill:#1d2b84;}.cls-5{mask:url(#mask-2);}.cls-6{fill:#0093dd;}.cls-7{fill:#db251b;}.cls-8{fill:#333;}</style><mask id="mask" x="15.22" y="5.31" width="81.43" height="83.69" maskUnits="userSpaceOnUse"><g transform="translate(-58.76 -10.14)"><path class="cls-1" d="M89.75,22.81h14.73c4.91,0,10.64,1.64,16.37,5.73,3.27-1.63,4.09-1.63,4.91-1.63h18l-18-10.64-18-.82Z"/></g></mask><mask id="mask-2" x="-0.64" y="7.56" width="104.19" height="82.33" maskUnits="userSpaceOnUse"><g transform="translate(-58.76 -10.14)"><circle class="cls-1" cx="113.81" cy="58.42" r="40.72"/><rect class="cls-1" x="58.12" y="18.9" width="104.19" height="24.55"/></g></mask></defs><title>DGTSDE_Logo_v2-Curva</title><path class="cls-2" d="M58.76,47.43c.64-7.38,4.44-27.31,18.09-27.31,7.23,0,20.93.74,35.32.59,15.76-.17,30.53,4.06,32.46,4.37a27.59,27.59,0,0,1,17.55,9.07V47.21Z" transform="translate(-58.76 -10.14)"/><circle class="cls-2" cx="55.35" cy="48.07" r="48.07"/><g class="cls-3"><circle class="cls-4" cx="55.93" cy="48.28" r="40.72"/></g><g class="cls-5"><path class="cls-6" d="M69.2,100C80,88.66,114.11,67.7,114.11,58.12s-13.18-13.77-13.18-13.77H69.2Z" transform="translate(-58.76 -10.14)"/><path class="cls-6" d="M104.23,44.05h54.48V99.14H131.77c0-12.58,4.19-9.58,4.19-25.75C136,59.62,114.41,44.05,104.23,44.05Z" transform="translate(-58.76 -10.14)"/><path class="cls-7" d="M84.47,99.14c6.58-12.58,35.32-24,35.32-37.13s-12-15.56-12-15.56c12,4.19,22.15,13.77,22.15,26.34s-10.18,17.37-10.18,26.35Z" transform="translate(-58.76 -10.14)"/><path class="cls-7" d="M155.44,35c-4.22-3.53-8.8-5.46-13.41-5.62v0H124.59a6.79,6.79,0,0,0-4.19,2C114.91,27.22,109,25,103.16,24.77v0h-25v0h-.08c-5.32.35-10,6.22-12.65,15.74l.18,1.75h89.82Zm-66.79-8.4a17.92,17.92,0,0,0-2.71,1.83l-.26-.27A6.1,6.1,0,0,1,88.65,26.57Zm2.56.75a27,27,0,0,0-4,2.4A14.92,14.92,0,0,1,91.21,27.32Zm-6.34-.82c-.18.15-.36.3-.53.46-.21-.16-.41-.32-.62-.46Zm-.41,2.91.16.16c-.42.41-.83.86-1.23,1.32A16.13,16.13,0,0,1,84.46,29.41Zm-4.2-2.66a8.59,8.59,0,0,1,2.86,1.5,21.35,21.35,0,0,0-2.86,4.66ZM77.67,40.51H67.26c1.37-4.75,3.29-8.52,5.5-10.94L77.7,40.38Zm.84-3-.09.27L74.1,28.29a7.24,7.24,0,0,1,4.1-1.77h.31Zm1.75,3v-.59a28.85,28.85,0,0,1,6.55-7.73,44.27,44.27,0,0,1,4.53,8.32Zm13.37,0h-.39a47.39,47.39,0,0,0-5-9.39,25.66,25.66,0,0,1,5.15-2.84l.27.23Zm1.75,0v-10a40.9,40.9,0,0,1,5.15,10Zm5.83-3a31.77,31.77,0,0,0-5.83-9.68v-.24a26.05,26.05,0,0,1,2.9-.7,14.91,14.91,0,0,1,2.93,1.09Zm7,3H103V28.94a25.6,25.6,0,0,1,5.25,4.66Zm0-9.54A23.55,23.55,0,0,0,103,26.84v-.33a24.77,24.77,0,0,1,5.25.73ZM110,40.51V35.75a49.14,49.14,0,0,1,3.16,4.76Zm4.09-1.86A46.55,46.55,0,0,0,110,32.91V27.75a28.42,28.42,0,0,1,4.09,1.68Zm1.75-8.27a36.67,36.67,0,0,1,3.42,2.26,21.41,21.41,0,0,0-3.42,7Zm4.67,10.13h-3.1a20.79,20.79,0,0,1,3.1-6.63Zm3.59,0h-1.84V36.45l1.84,4Zm.57-3-.09-.2.09.1Zm0-2.58c-.66-.64-1.33-1.24-2-1.83l-.45-1a4.75,4.75,0,0,1,2.46-1Zm1.75-3.61a5.82,5.82,0,0,1,1.36.73,14.67,14.67,0,0,0-1.36,2.08Zm0,9.17v-.3l.32-.52.69.82Zm3.26,0c-.63-.8-1.27-1.56-1.91-2.3a19.18,19.18,0,0,1,2.9-3.06,32,32,0,0,1,2.88,5.36Zm5.5-.64A32.29,32.29,0,0,0,132,34.09a17.6,17.6,0,0,1,3.12-1.72Zm1.75.64V34.43a30.64,30.64,0,0,1,3,6.08Zm3.52-3.33A21.12,21.12,0,0,0,137,31.72a15.4,15.4,0,0,1,1.66-.39,9.64,9.64,0,0,1,1.76.65Zm4.87,3.33h-3.12V33a17.92,17.92,0,0,1,3.12,2.83Zm0-7.23a17.78,17.78,0,0,0-2.74-2.16,17.33,17.33,0,0,1,2.74.43ZM147,40.51V38.06c.54.75,1.07,1.57,1.59,2.45Zm2.3-2.18a31.28,31.28,0,0,0-2.3-3.16V32.06a19.75,19.75,0,0,1,2.3,1Zm1.75,2.18V34a26.09,26.09,0,0,1,2.71,1.9v4.63Z" transform="translate(-58.76 -10.14)"/></g><path class="cls-6" d="M192.68,38.26a9.49,9.49,0,0,1-.68,3.65,8.37,8.37,0,0,1-1.92,2.88,8.5,8.5,0,0,1-3,1.9,10.41,10.41,0,0,1-3.87.68h-7.07V29.16h7.07a10.42,10.42,0,0,1,3.87.69,8.8,8.8,0,0,1,3,1.9A8.37,8.37,0,0,1,192,34.63,9.39,9.39,0,0,1,192.68,38.26Zm-4.32,0a8.08,8.08,0,0,0-.35-2.44A5.27,5.27,0,0,0,187,34a4.43,4.43,0,0,0-1.6-1.16,5.52,5.52,0,0,0-2.17-.41h-2.82V44.12h2.82a5.52,5.52,0,0,0,2.17-.4,4.43,4.43,0,0,0,1.6-1.16,5.32,5.32,0,0,0,1-1.85A8.05,8.05,0,0,0,188.36,38.26Z" transform="translate(-58.76 -10.14)"/><path class="cls-6" d="M197.91,30.86a2,2,0,0,1-.19.87,2.26,2.26,0,0,1-.51.71,2.42,2.42,0,0,1-.76.49,2.36,2.36,0,0,1-.92.18,2.16,2.16,0,0,1-.88-.18,2.45,2.45,0,0,1-.74-.49,2.4,2.4,0,0,1-.5-.71,2.12,2.12,0,0,1-.18-.87,2.25,2.25,0,0,1,.18-.89,2.58,2.58,0,0,1,.5-.72,2.45,2.45,0,0,1,.74-.49,2.34,2.34,0,0,1,.88-.17,2.55,2.55,0,0,1,.92.17A2.35,2.35,0,0,1,197.72,30,2.09,2.09,0,0,1,197.91,30.86Zm-.45,3.55v13h-3.88v-13Z" transform="translate(-58.76 -10.14)"/><path class="cls-6" d="M199.33,47.37v-13h2.3a2.14,2.14,0,0,1,.48.05,1,1,0,0,1,.33.16.65.65,0,0,1,.2.28q.06.18.12.42l.21,1.22a6.15,6.15,0,0,1,1.6-1.74,3.22,3.22,0,0,1,1.94-.64,2.19,2.19,0,0,1,1.42.43l-.5,2.85a.58.58,0,0,1-.2.37.68.68,0,0,1-.4.1,3.37,3.37,0,0,1-.5,0,3.59,3.59,0,0,0-.72-.06,2.65,2.65,0,0,0-2.4,1.62v7.95Z" transform="translate(-58.76 -10.14)"/><path class="cls-6" d="M214,34.21a6.77,6.77,0,0,1,2.35.4,5.2,5.2,0,0,1,1.84,1.16,5.47,5.47,0,0,1,1.2,1.87,6.85,6.85,0,0,1,.43,2.51,6.75,6.75,0,0,1,0,.71,1.34,1.34,0,0,1-.14.44.52.52,0,0,1-.27.22,1.08,1.08,0,0,1-.43.07h-7.48a3.67,3.67,0,0,0,1,2.35,2.92,2.92,0,0,0,2.06.73,3.72,3.72,0,0,0,1.17-.16,6.37,6.37,0,0,0,.86-.36l.7-.36a1.48,1.48,0,0,1,.67-.17.81.81,0,0,1,.7.34l1.13,1.39a5.65,5.65,0,0,1-1.3,1.12,6.33,6.33,0,0,1-1.42.67,7.16,7.16,0,0,1-1.46.34,11.58,11.58,0,0,1-1.4.09,7.12,7.12,0,0,1-2.55-.44,5.77,5.77,0,0,1-2.09-1.32,6.09,6.09,0,0,1-1.41-2.17,8.08,8.08,0,0,1-.52-3,7,7,0,0,1,.44-2.46,6.08,6.08,0,0,1,1.28-2,6.17,6.17,0,0,1,2-1.39A6.69,6.69,0,0,1,214,34.21Zm.07,2.68a2.31,2.31,0,0,0-1.73.63,3.25,3.25,0,0,0-.83,1.82h4.84a3.37,3.37,0,0,0-.12-.9,2.2,2.2,0,0,0-.39-.78,2,2,0,0,0-.7-.56A2.49,2.49,0,0,0,214,36.89Z" transform="translate(-58.76 -10.14)"/><path class="cls-6" d="M230.11,37.49a2.07,2.07,0,0,1-.34.33.7.7,0,0,1-.46.13,1,1,0,0,1-.52-.14l-.52-.3a3.31,3.31,0,0,0-.68-.31,2.87,2.87,0,0,0-1-.14,2.79,2.79,0,0,0-1.23.26,2.47,2.47,0,0,0-.86.75,3.65,3.65,0,0,0-.5,1.2,7.63,7.63,0,0,0-.16,1.59,4.83,4.83,0,0,0,.72,2.86,2.3,2.3,0,0,0,2,1,2.84,2.84,0,0,0,1.07-.16,3.48,3.48,0,0,0,.67-.38l.51-.38a.89.89,0,0,1,.58-.18.81.81,0,0,1,.7.34l1.12,1.39A6.19,6.19,0,0,1,230,46.47a5.92,5.92,0,0,1-1.36.67,6.27,6.27,0,0,1-1.39.34,10.7,10.7,0,0,1-1.36.09,5.86,5.86,0,0,1-2.27-.45,5.51,5.51,0,0,1-1.9-1.3,6.12,6.12,0,0,1-1.3-2.11,7.88,7.88,0,0,1-.48-2.85,8,8,0,0,1,.42-2.62,5.68,5.68,0,0,1,3.26-3.52,7.09,7.09,0,0,1,2.79-.51,6.75,6.75,0,0,1,2.68.49,6.38,6.38,0,0,1,2.07,1.42Z" transform="translate(-58.76 -10.14)"/><path class="cls-6" d="M241,37.49a2.07,2.07,0,0,1-.34.33.7.7,0,0,1-.46.13,1,1,0,0,1-.52-.14l-.52-.3a3.31,3.31,0,0,0-.68-.31,2.87,2.87,0,0,0-1-.14,2.79,2.79,0,0,0-1.23.26,2.47,2.47,0,0,0-.86.75,3.65,3.65,0,0,0-.5,1.2,7.63,7.63,0,0,0-.16,1.59,4.83,4.83,0,0,0,.72,2.86,2.3,2.3,0,0,0,2,1,2.84,2.84,0,0,0,1.07-.16,3.48,3.48,0,0,0,.67-.38l.51-.38a.89.89,0,0,1,.58-.18.81.81,0,0,1,.7.34l1.12,1.39a6.19,6.19,0,0,1-1.26,1.12,5.92,5.92,0,0,1-1.36.67,6.27,6.27,0,0,1-1.39.34,10.7,10.7,0,0,1-1.36.09,5.86,5.86,0,0,1-2.27-.45,5.51,5.51,0,0,1-1.9-1.3,6.12,6.12,0,0,1-1.3-2.11,7.88,7.88,0,0,1-.48-2.85,8,8,0,0,1,.42-2.62,5.68,5.68,0,0,1,3.26-3.52,7.09,7.09,0,0,1,2.79-.51,6.75,6.75,0,0,1,2.68.49A6.38,6.38,0,0,1,242,36.12Z" transform="translate(-58.76 -10.14)"/><path class="cls-6" d="M247,30.86a2.13,2.13,0,0,1-.19.87,2.38,2.38,0,0,1-1.27,1.2,2.36,2.36,0,0,1-.92.18,2.25,2.25,0,0,1-.89-.18,2.53,2.53,0,0,1-.73-.49,2.23,2.23,0,0,1-.5-.71,2.12,2.12,0,0,1-.18-.87,2.25,2.25,0,0,1,.18-.89,2.39,2.39,0,0,1,.5-.72,2.53,2.53,0,0,1,.73-.49,2.43,2.43,0,0,1,.89-.17,2.55,2.55,0,0,1,.92.17,2.42,2.42,0,0,1,.76.49,2.61,2.61,0,0,1,.51.72A2.26,2.26,0,0,1,247,30.86Zm-.45,3.55v13h-3.88v-13Z" transform="translate(-58.76 -10.14)"/><path class="cls-6" d="M254.21,34.21a7.61,7.61,0,0,1,2.68.46A5.89,5.89,0,0,1,259,36a6.18,6.18,0,0,1,1.35,2.09,7.59,7.59,0,0,1,.48,2.77,7.72,7.72,0,0,1-.48,2.8A6.37,6.37,0,0,1,259,45.77a6.05,6.05,0,0,1-2.09,1.34,7.39,7.39,0,0,1-2.68.46,7.52,7.52,0,0,1-2.71-.46,6.19,6.19,0,0,1-2.1-1.34A6,6,0,0,1,248,43.66a7.72,7.72,0,0,1-.48-2.8,7.59,7.59,0,0,1,.48-2.77A5.78,5.78,0,0,1,249.4,36a6,6,0,0,1,2.1-1.33A7.74,7.74,0,0,1,254.21,34.21Zm0,10.49a2.21,2.21,0,0,0,2-.94,5.24,5.24,0,0,0,.63-2.87,5.22,5.22,0,0,0-.63-2.87,2.23,2.23,0,0,0-2-.93,2.28,2.28,0,0,0-2,.93,5.22,5.22,0,0,0-.63,2.87,5.24,5.24,0,0,0,.63,2.87A2.27,2.27,0,0,0,254.21,44.7Zm5-15.74-3.25,3.29a2.22,2.22,0,0,1-.55.41,1.94,1.94,0,0,1-.7.11h-2.33l1.7-3.06a1.68,1.68,0,0,1,.5-.55,1.57,1.57,0,0,1,.88-.2Z" transform="translate(-58.76 -10.14)"/><path class="cls-6" d="M261.68,47.37v-13h2.4a1.18,1.18,0,0,1,.61.16.93.93,0,0,1,.34.49l.23.75a9.45,9.45,0,0,1,.77-.65,4.11,4.11,0,0,1,.86-.5,4.79,4.79,0,0,1,1-.33,5.14,5.14,0,0,1,1.15-.12,4.44,4.44,0,0,1,1.88.37,3.85,3.85,0,0,1,1.38,1,4.2,4.2,0,0,1,.85,1.56,6.21,6.21,0,0,1,.29,2v8.23h-3.87V39.14a2.25,2.25,0,0,0-.44-1.48,1.56,1.56,0,0,0-1.29-.54,2.78,2.78,0,0,0-1.2.28,4.57,4.57,0,0,0-1.07.74v9.23Z" transform="translate(-58.76 -10.14)"/><path class="cls-6" d="M287.08,44.32a7.21,7.21,0,0,0,1.55-.15,7.35,7.35,0,0,0,1.28-.4V41h-1.8a.89.89,0,0,1-.63-.21.7.7,0,0,1-.22-.54V37.94h6.47v7.68a9.2,9.2,0,0,1-1.46.89,9.91,9.91,0,0,1-1.61.6,11.28,11.28,0,0,1-1.82.35,17.09,17.09,0,0,1-2.08.11,9.53,9.53,0,0,1-3.7-.7,8.84,8.84,0,0,1-4.9-4.9,9.61,9.61,0,0,1-.7-3.71,10.07,10.07,0,0,1,.67-3.74,8.44,8.44,0,0,1,1.93-3,8.86,8.86,0,0,1,3-1.92,10.93,10.93,0,0,1,4-.69,11.21,11.21,0,0,1,2.14.19,10.73,10.73,0,0,1,1.84.51,9,9,0,0,1,1.55.78,8.83,8.83,0,0,1,1.25,1l-1.23,1.86a1.4,1.4,0,0,1-.42.42,1,1,0,0,1-.53.15,1.49,1.49,0,0,1-.77-.25c-.34-.2-.65-.38-1-.52a5.28,5.28,0,0,0-.9-.36,6.07,6.07,0,0,0-1-.2,9.88,9.88,0,0,0-1.15-.06,5.27,5.27,0,0,0-2.14.42,4.64,4.64,0,0,0-1.62,1.18,5.44,5.44,0,0,0-1,1.83,7.43,7.43,0,0,0-.36,2.38,7.6,7.6,0,0,0,.4,2.58,5.64,5.64,0,0,0,1.11,1.9A4.79,4.79,0,0,0,285,43.92,5.45,5.45,0,0,0,287.08,44.32Z" transform="translate(-58.76 -10.14)"/><path class="cls-6" d="M300.61,34.21a6.82,6.82,0,0,1,2.35.4,5.29,5.29,0,0,1,1.84,1.16,5.47,5.47,0,0,1,1.2,1.87,6.85,6.85,0,0,1,.43,2.51,4.61,4.61,0,0,1,0,.71,1.15,1.15,0,0,1-.13.44.52.52,0,0,1-.27.22,1.08,1.08,0,0,1-.43.07h-7.48a3.62,3.62,0,0,0,1,2.35,2.92,2.92,0,0,0,2.06.73,3.61,3.61,0,0,0,1.16-.16,6,6,0,0,0,.87-.36l.7-.36a1.45,1.45,0,0,1,.67-.17.81.81,0,0,1,.7.34l1.13,1.39a5.87,5.87,0,0,1-1.3,1.12,6.33,6.33,0,0,1-1.42.67,7.1,7.1,0,0,1-1.47.34,11.29,11.29,0,0,1-1.39.09,7.21,7.21,0,0,1-2.56-.44,5.81,5.81,0,0,1-2.08-1.32,6.25,6.25,0,0,1-1.42-2.17,8.29,8.29,0,0,1-.51-3,6.75,6.75,0,0,1,.44-2.46,6.21,6.21,0,0,1,1.27-2,6.32,6.32,0,0,1,2-1.39A6.62,6.62,0,0,1,300.61,34.21Zm.07,2.68a2.35,2.35,0,0,0-1.74.63,3.32,3.32,0,0,0-.82,1.82H303a3.37,3.37,0,0,0-.12-.9,2.2,2.2,0,0,0-.39-.78,1.91,1.91,0,0,0-.71-.56A2.41,2.41,0,0,0,300.68,36.89Z" transform="translate(-58.76 -10.14)"/><path class="cls-6" d="M307.41,47.37v-13h2.39a1.13,1.13,0,0,1,.61.16.94.94,0,0,1,.35.49l.22.75a9.59,9.59,0,0,1,.78-.65,4,4,0,0,1,.85-.5,5.06,5.06,0,0,1,2.14-.45,4.52,4.52,0,0,1,1.89.37,4,4,0,0,1,1.38,1,4.35,4.35,0,0,1,.85,1.56,6.51,6.51,0,0,1,.29,2v8.23h-3.88V39.14a2.25,2.25,0,0,0-.44-1.48,1.55,1.55,0,0,0-1.28-.54,2.71,2.71,0,0,0-1.2.28,4.42,4.42,0,0,0-1.08.74v9.23Z" transform="translate(-58.76 -10.14)"/><path class="cls-6" d="M326.21,34.21a6.82,6.82,0,0,1,2.35.4,5.29,5.29,0,0,1,1.84,1.16,5.47,5.47,0,0,1,1.2,1.87,6.85,6.85,0,0,1,.43,2.51,4.61,4.61,0,0,1,0,.71,1.15,1.15,0,0,1-.13.44.52.52,0,0,1-.27.22,1.11,1.11,0,0,1-.43.07h-7.48a3.62,3.62,0,0,0,1,2.35,2.92,2.92,0,0,0,2.06.73,3.61,3.61,0,0,0,1.16-.16,6,6,0,0,0,.87-.36l.7-.36a1.45,1.45,0,0,1,.67-.17.81.81,0,0,1,.7.34L332,45.35a5.87,5.87,0,0,1-1.3,1.12,6.54,6.54,0,0,1-1.42.67,7.1,7.1,0,0,1-1.47.34,11.29,11.29,0,0,1-1.39.09,7.21,7.21,0,0,1-2.56-.44,5.81,5.81,0,0,1-2.08-1.32,6.25,6.25,0,0,1-1.42-2.17,8.29,8.29,0,0,1-.51-3,6.75,6.75,0,0,1,.44-2.46,6.05,6.05,0,0,1,1.27-2,6.32,6.32,0,0,1,2-1.39A6.62,6.62,0,0,1,326.21,34.21Zm.07,2.68a2.35,2.35,0,0,0-1.74.63,3.32,3.32,0,0,0-.82,1.82h4.84a3.37,3.37,0,0,0-.12-.9,2.2,2.2,0,0,0-.39-.78,2,2,0,0,0-.71-.56A2.41,2.41,0,0,0,326.28,36.89Z" transform="translate(-58.76 -10.14)"/><path class="cls-6" d="M333,47.37v-13h2.3a2.17,2.17,0,0,1,.49.05,1,1,0,0,1,.32.16.58.58,0,0,1,.2.28,2.1,2.1,0,0,1,.12.42l.21,1.22a6.3,6.3,0,0,1,1.6-1.74,3.22,3.22,0,0,1,1.94-.64,2.17,2.17,0,0,1,1.42.43l-.5,2.85a.62.62,0,0,1-.19.37.73.73,0,0,1-.41.1,3.5,3.5,0,0,1-.5,0,3.59,3.59,0,0,0-.72-.06,2.65,2.65,0,0,0-2.4,1.62v7.95Z" transform="translate(-58.76 -10.14)"/><path class="cls-6" d="M350.78,47.37a1.81,1.81,0,0,1-.83-.15,1.13,1.13,0,0,1-.47-.62l-.27-.71c-.33.27-.64.51-.94.72a5.41,5.41,0,0,1-.93.53,4.43,4.43,0,0,1-1,.33,6.33,6.33,0,0,1-1.2.1,5.16,5.16,0,0,1-1.62-.23,3.34,3.34,0,0,1-1.23-.68,3,3,0,0,1-.78-1.12,4.16,4.16,0,0,1-.27-1.55,3.31,3.31,0,0,1,.34-1.42,3.58,3.58,0,0,1,1.22-1.32,7.65,7.65,0,0,1,2.32-1,14.18,14.18,0,0,1,3.69-.4v-.56a2.41,2.41,0,0,0-.47-1.65,1.69,1.69,0,0,0-1.33-.52,3.48,3.48,0,0,0-1.12.15,5.35,5.35,0,0,0-.79.34c-.23.13-.45.24-.66.34a1.87,1.87,0,0,1-.78.15,1.16,1.16,0,0,1-.68-.19,1.41,1.41,0,0,1-.45-.49l-.7-1.21a8.07,8.07,0,0,1,2.61-1.54,9.11,9.11,0,0,1,3.07-.51,5.72,5.72,0,0,1,2.12.38,4.59,4.59,0,0,1,1.6,1.07,4.68,4.68,0,0,1,1,1.61,5.92,5.92,0,0,1,.34,2.05v8.1ZM346.33,45a3.12,3.12,0,0,0,1.31-.26,4,4,0,0,0,1.14-.85V42.12a9.87,9.87,0,0,0-1.91.16,4.66,4.66,0,0,0-1.19.37,1.62,1.62,0,0,0-.61.52,1.23,1.23,0,0,0-.16.63,1.1,1.1,0,0,0,.36.94A1.74,1.74,0,0,0,346.33,45Z" transform="translate(-58.76 -10.14)"/><path class="cls-6" d="M358.05,28.66V47.37h-3.87V28.66Z" transform="translate(-58.76 -10.14)"/><path class="cls-6" d="M372.6,47.37a1,1,0,0,1-.6-.16.86.86,0,0,1-.35-.49l-.3-1a8.18,8.18,0,0,1-.81.75,5.11,5.11,0,0,1-.92.58,4.58,4.58,0,0,1-1.06.37,5.34,5.34,0,0,1-1.23.13,4,4,0,0,1-1.88-.45,4.25,4.25,0,0,1-1.48-1.3,6.27,6.27,0,0,1-1-2.08,10,10,0,0,1-.36-2.8,8.68,8.68,0,0,1,.4-2.7,6.67,6.67,0,0,1,1.13-2.15,5.38,5.38,0,0,1,1.76-1.42,5,5,0,0,1,2.26-.51,4.22,4.22,0,0,1,1.69.3,5,5,0,0,1,1.26.76V28.66H375V47.37Zm-3.92-2.77a3.64,3.64,0,0,0,.77-.08,2.93,2.93,0,0,0,.63-.23,2.78,2.78,0,0,0,.54-.38,5.05,5.05,0,0,0,.51-.52v-5.5a2.4,2.4,0,0,0-1-.68,3,3,0,0,0-1.07-.2,2.3,2.3,0,0,0-1,.21,2.14,2.14,0,0,0-.79.69,3.47,3.47,0,0,0-.51,1.21,7.37,7.37,0,0,0-.19,1.82,8.32,8.32,0,0,0,.15,1.72,3.43,3.43,0,0,0,.42,1.13,1.58,1.58,0,0,0,.64.62A1.79,1.79,0,0,0,368.68,44.6Z" transform="translate(-58.76 -10.14)"/><path class="cls-6" d="M382.3,34.21a6.83,6.83,0,0,1,2.36.4,5.29,5.29,0,0,1,1.84,1.16,5.47,5.47,0,0,1,1.2,1.87,6.85,6.85,0,0,1,.43,2.51,4.61,4.61,0,0,1,0,.71,1,1,0,0,1-.14.44.47.47,0,0,1-.26.22,1.13,1.13,0,0,1-.44.07h-7.47a3.57,3.57,0,0,0,1,2.35,2.92,2.92,0,0,0,2.06.73,3.61,3.61,0,0,0,1.16-.16,6,6,0,0,0,.87-.36l.7-.36a1.45,1.45,0,0,1,.67-.17.81.81,0,0,1,.7.34l1.12,1.39a5.83,5.83,0,0,1-1.29,1.12,6.4,6.4,0,0,1-1.43.67,6.87,6.87,0,0,1-1.46.34,11.42,11.42,0,0,1-1.39.09,7.21,7.21,0,0,1-2.56-.44,5.94,5.94,0,0,1-2.09-1.32,6.37,6.37,0,0,1-1.41-2.17,8.29,8.29,0,0,1-.52-3,6.75,6.75,0,0,1,.45-2.46,6.05,6.05,0,0,1,1.27-2,6.39,6.39,0,0,1,2-1.39A6.69,6.69,0,0,1,382.3,34.21Zm.08,2.68a2.35,2.35,0,0,0-1.74.63,3.25,3.25,0,0,0-.82,1.82h4.83a3.82,3.82,0,0,0-.11-.9,2.2,2.2,0,0,0-.39-.78,2,2,0,0,0-.71-.56A2.41,2.41,0,0,0,382.38,36.89Z" transform="translate(-58.76 -10.14)"/><path class="cls-6" d="M405.9,29.16v3.35h-5.12V47.37h-4.23V32.51h-5.12V29.16Z" transform="translate(-58.76 -10.14)"/><path class="cls-6" d="M404.4,47.37v-13h2.3a2.08,2.08,0,0,1,.48.05,1,1,0,0,1,.33.16.65.65,0,0,1,.2.28q.06.18.12.42l.21,1.22a6.3,6.3,0,0,1,1.6-1.74,3.22,3.22,0,0,1,1.94-.64,2.19,2.19,0,0,1,1.42.43l-.5,2.85a.58.58,0,0,1-.2.37.68.68,0,0,1-.4.1,3.37,3.37,0,0,1-.5,0,3.59,3.59,0,0,0-.72-.06,2.65,2.65,0,0,0-2.4,1.62v7.95Z" transform="translate(-58.76 -10.14)"/><path class="cls-6" d="M422.18,47.37a1.81,1.81,0,0,1-.83-.15,1.09,1.09,0,0,1-.47-.62l-.28-.71q-.48.4-.93.72a5.14,5.14,0,0,1-.94.53,4.35,4.35,0,0,1-1,.33,6.36,6.36,0,0,1-1.21.1,5.09,5.09,0,0,1-1.61-.23,3.34,3.34,0,0,1-1.23-.68,3,3,0,0,1-.78-1.12A4.16,4.16,0,0,1,412.6,44a3.33,3.33,0,0,1,.35-1.42,3.58,3.58,0,0,1,1.22-1.32,7.65,7.65,0,0,1,2.32-1,14.18,14.18,0,0,1,3.69-.4v-.56a2.41,2.41,0,0,0-.47-1.65,1.69,1.69,0,0,0-1.33-.52,3.55,3.55,0,0,0-1.13.15,5.7,5.7,0,0,0-.78.34c-.23.13-.45.24-.67.34a1.79,1.79,0,0,1-.77.15,1.16,1.16,0,0,1-.68-.19,1.41,1.41,0,0,1-.45-.49l-.7-1.21a8.07,8.07,0,0,1,2.61-1.54,9.07,9.07,0,0,1,3.07-.51,5.72,5.72,0,0,1,2.12.38,4.59,4.59,0,0,1,1.6,1.07,4.52,4.52,0,0,1,1,1.61,5.7,5.7,0,0,1,.35,2.05v8.1ZM417.73,45a3.12,3.12,0,0,0,1.31-.26,4.16,4.16,0,0,0,1.14-.85V42.12a9.87,9.87,0,0,0-1.91.16,4.66,4.66,0,0,0-1.19.37,1.54,1.54,0,0,0-.61.52,1.24,1.24,0,0,0-.17.63,1.08,1.08,0,0,0,.37.94A1.74,1.74,0,0,0,417.73,45Z" transform="translate(-58.76 -10.14)"/><path class="cls-6" d="M425.45,47.37v-13h2.4a1.15,1.15,0,0,1,.61.16.88.88,0,0,1,.34.49l.23.75c.25-.23.51-.45.77-.65a4.38,4.38,0,0,1,.86-.5,4.79,4.79,0,0,1,1-.33,5.2,5.2,0,0,1,1.15-.12,4.44,4.44,0,0,1,1.88.37,4,4,0,0,1,1.39,1,4.51,4.51,0,0,1,.85,1.56,6.51,6.51,0,0,1,.28,2v8.23h-3.87V39.14a2.25,2.25,0,0,0-.44-1.48,1.56,1.56,0,0,0-1.29-.54,2.78,2.78,0,0,0-1.2.28,4.57,4.57,0,0,0-1.07.74v9.23Z" transform="translate(-58.76 -10.14)"/><path class="cls-6" d="M446.63,37.25a1.06,1.06,0,0,1-.32.34.91.91,0,0,1-.43.1,1.33,1.33,0,0,1-.55-.12l-.6-.26a7.24,7.24,0,0,0-.71-.25,3.26,3.26,0,0,0-.92-.12,1.91,1.91,0,0,0-1.13.28.91.91,0,0,0-.39.78.79.79,0,0,0,.25.6,2.26,2.26,0,0,0,.69.42,9.55,9.55,0,0,0,1,.34l1.1.36a11.72,11.72,0,0,1,1.1.47,3.84,3.84,0,0,1,1,.67,3,3,0,0,1,.68,1,3.28,3.28,0,0,1,.26,1.35,4.52,4.52,0,0,1-.35,1.78,3.67,3.67,0,0,1-1.05,1.4,5,5,0,0,1-1.71.91,8.21,8.21,0,0,1-3.67.2,8.91,8.91,0,0,1-1.28-.34,7.4,7.4,0,0,1-1.14-.5,4.94,4.94,0,0,1-.9-.64l.9-1.42a1.21,1.21,0,0,1,.39-.39,1,1,0,0,1,.58-.15,1.23,1.23,0,0,1,.61.15l.58.33a5.67,5.67,0,0,0,.73.32,3.18,3.18,0,0,0,1.06.15,2.78,2.78,0,0,0,.76-.09,1.24,1.24,0,0,0,.5-.26,1,1,0,0,0,.28-.36,1.15,1.15,0,0,0,.08-.41.83.83,0,0,0-.26-.64,2.09,2.09,0,0,0-.69-.43,9,9,0,0,0-1-.34c-.36-.1-.73-.22-1.1-.36a7.75,7.75,0,0,1-1.11-.48,3.73,3.73,0,0,1-1-.71,3.28,3.28,0,0,1-.68-1.06,3.78,3.78,0,0,1-.27-1.51,4,4,0,0,1,.32-1.57,3.55,3.55,0,0,1,1-1.3,4.58,4.58,0,0,1,1.6-.9,6.93,6.93,0,0,1,2.25-.33,6.58,6.58,0,0,1,1.35.13,6.85,6.85,0,0,1,1.24.35,5.73,5.73,0,0,1,1.05.53,5.06,5.06,0,0,1,.83.67Z" transform="translate(-58.76 -10.14)"/><path class="cls-6" d="M448.45,51.49V34.41h2.4a1.15,1.15,0,0,1,.61.16.88.88,0,0,1,.34.49l.29.95a7.2,7.2,0,0,1,.81-.75,5.08,5.08,0,0,1,2-1,5.44,5.44,0,0,1,1.25-.14,4,4,0,0,1,1.87.45,4.38,4.38,0,0,1,1.49,1.3,6.58,6.58,0,0,1,1,2.08,10,10,0,0,1,.36,2.8,8.68,8.68,0,0,1-.41,2.7,6.79,6.79,0,0,1-1.14,2.15,5.11,5.11,0,0,1-1.75,1.42,5,5,0,0,1-2.25.51,4.45,4.45,0,0,1-1.7-.28,4.38,4.38,0,0,1-1.25-.78v5Zm6.33-14.37a3,3,0,0,0-.77.09,2.71,2.71,0,0,0-.64.23,2,2,0,0,0-.54.38,4.26,4.26,0,0,0-.5.53v5.5a2.51,2.51,0,0,0,.95.68,3,3,0,0,0,1.07.19,2.31,2.31,0,0,0,1-.21,2,2,0,0,0,.78-.68,3.73,3.73,0,0,0,.52-1.22,7.88,7.88,0,0,0,.19-1.82,8.43,8.43,0,0,0-.15-1.73,3.61,3.61,0,0,0-.42-1.13,1.67,1.67,0,0,0-.65-.62A1.91,1.91,0,0,0,454.78,37.12Z" transform="translate(-58.76 -10.14)"/><path class="cls-6" d="M467.43,34.21a7.71,7.71,0,0,1,2.69.46,5.83,5.83,0,0,1,3.43,3.42,7.59,7.59,0,0,1,.48,2.77,7.72,7.72,0,0,1-.48,2.8,5.84,5.84,0,0,1-3.43,3.45,8.15,8.15,0,0,1-5.4,0,6.19,6.19,0,0,1-2.1-1.34,6,6,0,0,1-1.36-2.11,7.72,7.72,0,0,1-.48-2.8,7.59,7.59,0,0,1,.48-2.77A5.78,5.78,0,0,1,462.62,36a6,6,0,0,1,2.1-1.33A7.78,7.78,0,0,1,467.43,34.21Zm0,10.49a2.2,2.2,0,0,0,2-.94,5.24,5.24,0,0,0,.63-2.87A5.22,5.22,0,0,0,469.4,38a2.22,2.22,0,0,0-2-.93,2.25,2.25,0,0,0-2,.93,5.13,5.13,0,0,0-.64,2.87,5.15,5.15,0,0,0,.64,2.87A2.24,2.24,0,0,0,467.43,44.7Z" transform="translate(-58.76 -10.14)"/><path class="cls-6" d="M474.9,47.37v-13h2.3a2.14,2.14,0,0,1,.48.05,1,1,0,0,1,.33.16.65.65,0,0,1,.2.28q.06.18.12.42l.21,1.22a6.15,6.15,0,0,1,1.6-1.74,3.22,3.22,0,0,1,1.94-.64,2.19,2.19,0,0,1,1.42.43l-.5,2.85a.58.58,0,0,1-.2.37.68.68,0,0,1-.4.1,3.37,3.37,0,0,1-.5,0,3.59,3.59,0,0,0-.72-.06,2.65,2.65,0,0,0-2.4,1.62v7.95Z" transform="translate(-58.76 -10.14)"/><path class="cls-6" d="M488.53,47.57a4.76,4.76,0,0,1-1.63-.26,3.18,3.18,0,0,1-1.19-.77,3.14,3.14,0,0,1-.73-1.19,4.56,4.56,0,0,1-.25-1.56v-6.7h-1.1a.77.77,0,0,1-.52-.2.74.74,0,0,1-.21-.57V34.81l2.06-.4.77-3.16a.77.77,0,0,1,.85-.6h2v3.79h3.15v2.65H488.6v6.43a1.21,1.21,0,0,0,.22.75.76.76,0,0,0,.63.29,1.28,1.28,0,0,0,.36,0,1.45,1.45,0,0,0,.25-.1l.2-.1a.48.48,0,0,1,.22,0,.43.43,0,0,1,.28.09,1.14,1.14,0,0,1,.22.25l1.17,1.84a5.25,5.25,0,0,1-1.69.84A6.58,6.58,0,0,1,488.53,47.57Z" transform="translate(-58.76 -10.14)"/><path class="cls-6" d="M498.28,34.21a6.82,6.82,0,0,1,2.35.4,5.2,5.2,0,0,1,1.84,1.16,5.47,5.47,0,0,1,1.2,1.87,6.85,6.85,0,0,1,.43,2.51,4.61,4.61,0,0,1,0,.71,1.15,1.15,0,0,1-.13.44.52.52,0,0,1-.27.22,1.11,1.11,0,0,1-.43.07h-7.48a3.67,3.67,0,0,0,1,2.35,2.92,2.92,0,0,0,2.06.73,3.61,3.61,0,0,0,1.16-.16,6,6,0,0,0,.87-.36l.7-.36a1.48,1.48,0,0,1,.67-.17.81.81,0,0,1,.7.34L504,45.35a5.65,5.65,0,0,1-1.3,1.12,6.54,6.54,0,0,1-1.42.67,7.16,7.16,0,0,1-1.46.34,11.58,11.58,0,0,1-1.4.09,7.12,7.12,0,0,1-2.55-.44,5.77,5.77,0,0,1-2.09-1.32,6.09,6.09,0,0,1-1.41-2.17,8.08,8.08,0,0,1-.52-3,6.75,6.75,0,0,1,.44-2.46,6.08,6.08,0,0,1,1.28-2,6.17,6.17,0,0,1,2-1.39A6.69,6.69,0,0,1,498.28,34.21Zm.07,2.68a2.35,2.35,0,0,0-1.74.63,3.32,3.32,0,0,0-.82,1.82h4.84a3.37,3.37,0,0,0-.12-.9,2.2,2.2,0,0,0-.39-.78,1.91,1.91,0,0,0-.71-.56A2.41,2.41,0,0,0,498.35,36.89Z" transform="translate(-58.76 -10.14)"/><path class="cls-8" d="M183.69,65c.12.28.24.56.35.84.11-.29.23-.58.36-.85s.26-.55.39-.81l3.74-7.37a1.45,1.45,0,0,1,.21-.29.73.73,0,0,1,.23-.16.94.94,0,0,1,.3-.05h3V70.89h-3V62.51q0-.6.06-1.32l-3.86,7.49a1.24,1.24,0,0,1-.48.53,1.38,1.38,0,0,1-.7.18h-.46a1.31,1.31,0,0,1-.69-.18,1.2,1.2,0,0,1-.49-.53l-3.88-7.5c0,.24.05.47.06.7s0,.44,0,.63v8.38h-3V56.33h3a.88.88,0,0,1,.29.05.78.78,0,0,1,.24.16,1.45,1.45,0,0,1,.2.29l3.75,7.4C183.43,64.48,183.56,64.75,183.69,65Z" transform="translate(-58.76 -10.14)"/><path class="cls-8" d="M197.33,57.68a1.66,1.66,0,0,1-.15.7,1.92,1.92,0,0,1-1,1,2,2,0,0,1-.74.14,1.87,1.87,0,0,1-.71-.14,2.11,2.11,0,0,1-.58-.39,1.84,1.84,0,0,1-.4-.57,1.66,1.66,0,0,1-.15-.7,1.71,1.71,0,0,1,.15-.71,1.77,1.77,0,0,1,.4-.58,2.11,2.11,0,0,1,.58-.39,1.87,1.87,0,0,1,.71-.14,2,2,0,0,1,.74.14,2.07,2.07,0,0,1,.6.39,2,2,0,0,1,.41.58A1.71,1.71,0,0,1,197.33,57.68ZM197,60.52V70.89h-3.1V60.52Z" transform="translate(-58.76 -10.14)"/><path class="cls-8" d="M198.61,70.89V60.52h1.92a.94.94,0,0,1,.49.13.69.69,0,0,1,.27.39l.18.6c.2-.18.41-.36.62-.52a3.36,3.36,0,0,1,.69-.4,3.76,3.76,0,0,1,.78-.26,4.57,4.57,0,0,1,.93-.1,3.6,3.6,0,0,1,1.51.3,3.08,3.08,0,0,1,1.1.82,3.43,3.43,0,0,1,.68,1.25A5.27,5.27,0,0,1,208,64.3v6.59h-3.1V64.3a1.82,1.82,0,0,0-.35-1.18,1.24,1.24,0,0,0-1-.43,2.25,2.25,0,0,0-1,.22,4,4,0,0,0-.86.59v7.39Z" transform="translate(-58.76 -10.14)"/><path class="cls-8" d="M212.91,57.68a1.66,1.66,0,0,1-.15.7,1.92,1.92,0,0,1-1,1,2,2,0,0,1-.74.14,1.87,1.87,0,0,1-.71-.14,2.16,2.16,0,0,1-.59-.39,2,2,0,0,1-.4-.57,1.82,1.82,0,0,1-.14-.7,1.87,1.87,0,0,1,.14-.71,1.94,1.94,0,0,1,.4-.58,2.16,2.16,0,0,1,.59-.39,1.87,1.87,0,0,1,.71-.14,2,2,0,0,1,.74.14,2.07,2.07,0,0,1,.6.39,2,2,0,0,1,.41.58A1.71,1.71,0,0,1,212.91,57.68Zm-.36,2.84V70.89h-3.1V60.52Z" transform="translate(-58.76 -10.14)"/><path class="cls-8" d="M220.53,62.79a.75.75,0,0,1-.26.27.59.59,0,0,1-.34.08,1.15,1.15,0,0,1-.44-.09l-.48-.21a5.36,5.36,0,0,0-.57-.2,2.34,2.34,0,0,0-.73-.1,1.57,1.57,0,0,0-.91.23.72.72,0,0,0-.31.62.63.63,0,0,0,.2.48,1.92,1.92,0,0,0,.55.34,7.56,7.56,0,0,0,.77.27l.88.29a7.53,7.53,0,0,1,.88.38,3.19,3.19,0,0,1,.77.53,2.19,2.19,0,0,1,.54.76,2.54,2.54,0,0,1,.21,1.08,3.46,3.46,0,0,1-.28,1.42,3,3,0,0,1-.84,1.12,3.74,3.74,0,0,1-1.37.73,5.91,5.91,0,0,1-1.87.26,5.44,5.44,0,0,1-1.06-.1,6,6,0,0,1-1-.27,5.81,5.81,0,0,1-.91-.4,4.15,4.15,0,0,1-.72-.51l.72-1.14a1,1,0,0,1,.31-.31.84.84,0,0,1,.47-.12,1,1,0,0,1,.48.12l.47.26a3.48,3.48,0,0,0,.58.26,2.6,2.6,0,0,0,.85.12,2.18,2.18,0,0,0,.61-.07,1,1,0,0,0,.4-.21.77.77,0,0,0,.22-.29.72.72,0,0,0,.07-.33.69.69,0,0,0-.21-.51,1.72,1.72,0,0,0-.55-.34,5.89,5.89,0,0,0-.78-.27c-.29-.08-.58-.18-.88-.29a6.26,6.26,0,0,1-.89-.38,3.08,3.08,0,0,1-.77-.57,2.55,2.55,0,0,1-.55-.85,3.09,3.09,0,0,1-.21-1.21,3.14,3.14,0,0,1,.25-1.25,2.92,2.92,0,0,1,.77-1,3.67,3.67,0,0,1,1.28-.71,5.41,5.41,0,0,1,1.8-.27,6.38,6.38,0,0,1,1.08.1,6,6,0,0,1,1,.28,4.14,4.14,0,0,1,.84.43,4,4,0,0,1,.67.53Z" transform="translate(-58.76 -10.14)"/><path class="cls-8" d="M225.77,71.05a3.79,3.79,0,0,1-1.31-.21,2.49,2.49,0,0,1-1.53-1.57,3.77,3.77,0,0,1-.2-1.25V62.66h-.88a.59.59,0,0,1-.41-.15.62.62,0,0,1-.17-.46V60.84l1.65-.32.61-2.53a.62.62,0,0,1,.68-.48h1.62v3h2.52v2.12h-2.52v5.15a1,1,0,0,0,.17.6.62.62,0,0,0,.51.23,1.09,1.09,0,0,0,.28,0,1.38,1.38,0,0,0,.2-.08l.16-.08a.34.34,0,0,1,.18,0,.31.31,0,0,1,.22.07.72.72,0,0,1,.18.2l.94,1.47a4.29,4.29,0,0,1-1.35.68A5.38,5.38,0,0,1,225.77,71.05Z" transform="translate(-58.76 -10.14)"/><path class="cls-8" d="M233.71,60.36a5.37,5.37,0,0,1,1.88.32A4.06,4.06,0,0,1,238,63.11a5.48,5.48,0,0,1,.35,2,4.24,4.24,0,0,1,0,.57.9.9,0,0,1-.11.35.39.39,0,0,1-.22.18.84.84,0,0,1-.34.05h-6a2.91,2.91,0,0,0,.79,1.89,2.36,2.36,0,0,0,1.65.58,2.86,2.86,0,0,0,.93-.13,3.67,3.67,0,0,0,.69-.29l.56-.29a1.26,1.26,0,0,1,.54-.13.64.64,0,0,1,.56.27l.9,1.11a4.57,4.57,0,0,1-1,.9,5.38,5.38,0,0,1-1.14.54A6.18,6.18,0,0,1,235,71a8.7,8.7,0,0,1-1.11.07,6,6,0,0,1-2-.35,4.8,4.8,0,0,1-1.67-1.06A5,5,0,0,1,229,67.9a6.63,6.63,0,0,1-.41-2.42,5.63,5.63,0,0,1,.35-2,5,5,0,0,1,1-1.63,5.14,5.14,0,0,1,1.61-1.11A5.41,5.41,0,0,1,233.71,60.36Zm.06,2.14a1.86,1.86,0,0,0-1.39.51,2.65,2.65,0,0,0-.66,1.45h3.87a2.55,2.55,0,0,0-.1-.72,1.65,1.65,0,0,0-.87-1.07A2,2,0,0,0,233.77,62.5Z" transform="translate(-58.76 -10.14)"/><path class="cls-8" d="M239.29,70.89V60.52h1.84a1.92,1.92,0,0,1,.38,0,.64.64,0,0,1,.26.13.45.45,0,0,1,.16.22,2.31,2.31,0,0,1,.1.34l.17,1a5.23,5.23,0,0,1,1.28-1.39,2.59,2.59,0,0,1,1.55-.51,1.84,1.84,0,0,1,1.14.34l-.4,2.28a.48.48,0,0,1-.16.3.61.61,0,0,1-.32.08,2.07,2.07,0,0,1-.4,0,3,3,0,0,0-.58-.05,2.15,2.15,0,0,0-1.92,1.3v6.36Z" transform="translate(-58.76 -10.14)"/><path class="cls-8" d="M250.25,57.68a1.66,1.66,0,0,1-.15.7,2.06,2.06,0,0,1-.41.57,2.12,2.12,0,0,1-.61.39,2,2,0,0,1-.73.14,1.87,1.87,0,0,1-.71-.14,2.16,2.16,0,0,1-.59-.39,2,2,0,0,1-.4-.57,1.82,1.82,0,0,1-.14-.7,1.87,1.87,0,0,1,.14-.71,1.94,1.94,0,0,1,.4-.58,2.16,2.16,0,0,1,.59-.39,1.87,1.87,0,0,1,.71-.14,2,2,0,0,1,.73.14,2.12,2.12,0,0,1,.61.39,2,2,0,0,1,.41.58A1.71,1.71,0,0,1,250.25,57.68Zm-.36,2.84V70.89h-3.1V60.52Z" transform="translate(-58.76 -10.14)"/><path class="cls-8" d="M256.15,60.36a6.14,6.14,0,0,1,2.15.37A4.68,4.68,0,0,1,260,61.79,4.59,4.59,0,0,1,261,63.47a6,6,0,0,1,.39,2.21,6.12,6.12,0,0,1-.39,2.24,4.67,4.67,0,0,1-2.74,2.76,5.92,5.92,0,0,1-2.15.37,6,6,0,0,1-2.17-.37,4.68,4.68,0,0,1-2.77-2.76,6.34,6.34,0,0,1-.38-2.24,6.17,6.17,0,0,1,.38-2.21,4.74,4.74,0,0,1,1.09-1.68A4.86,4.86,0,0,1,254,60.73,6.21,6.21,0,0,1,256.15,60.36Zm0,8.39a1.75,1.75,0,0,0,1.57-.75,5.42,5.42,0,0,0,0-4.59,1.75,1.75,0,0,0-1.57-.75,1.81,1.81,0,0,0-1.61.75,5.42,5.42,0,0,0,0,4.59A1.81,1.81,0,0,0,256.15,68.75Z" transform="translate(-58.76 -10.14)"/><path class="cls-8" d="M272.55,70.89a.83.83,0,0,1-.49-.13.63.63,0,0,1-.27-.39l-.24-.79a6.08,6.08,0,0,1-.65.6,4,4,0,0,1-.74.47,3.71,3.71,0,0,1-.85.3,4.34,4.34,0,0,1-1,.1,3.19,3.19,0,0,1-1.5-.36,3.36,3.36,0,0,1-1.19-1,5.12,5.12,0,0,1-.79-1.66,8.15,8.15,0,0,1-.28-2.25,6.78,6.78,0,0,1,.32-2.15,5.11,5.11,0,0,1,.9-1.72,4.2,4.2,0,0,1,1.41-1.14,4,4,0,0,1,1.81-.41,3.4,3.4,0,0,1,1.35.24,3.83,3.83,0,0,1,1,.61V55.92h3.1v15Zm-3.14-2.22a2.87,2.87,0,0,0,.61-.06,2.35,2.35,0,0,0,.51-.19,2.08,2.08,0,0,0,.43-.3,4.11,4.11,0,0,0,.41-.42V63.3a2,2,0,0,0-.77-.54,2.22,2.22,0,0,0-.85-.16,1.86,1.86,0,0,0-.79.17,1.72,1.72,0,0,0-.63.55,3,3,0,0,0-.41,1,6.1,6.1,0,0,0-.15,1.45,6.67,6.67,0,0,0,.12,1.38,2.9,2.9,0,0,0,.33.91,1.34,1.34,0,0,0,.52.49A1.47,1.47,0,0,0,269.41,68.67Z" transform="translate(-58.76 -10.14)"/><path class="cls-8" d="M280.45,60.36a5.41,5.41,0,0,1,1.88.32,4.06,4.06,0,0,1,2.43,2.43,5.48,5.48,0,0,1,.35,2,4.24,4.24,0,0,1,0,.57A.9.9,0,0,1,285,66a.42.42,0,0,1-.22.18.84.84,0,0,1-.34.05h-6a2.91,2.91,0,0,0,.79,1.89,2.33,2.33,0,0,0,1.65.58,2.86,2.86,0,0,0,.93-.13,3.67,3.67,0,0,0,.69-.29l.56-.29a1.26,1.26,0,0,1,.54-.13.65.65,0,0,1,.56.27l.9,1.11a4.57,4.57,0,0,1-1,.9,5.38,5.38,0,0,1-1.14.54,6.18,6.18,0,0,1-1.17.27,8.7,8.7,0,0,1-1.11.07,6,6,0,0,1-2-.35,4.8,4.8,0,0,1-1.67-1.06,5,5,0,0,1-1.13-1.74,6.63,6.63,0,0,1-.41-2.42,5.63,5.63,0,0,1,.35-2,5,5,0,0,1,1-1.63,5.14,5.14,0,0,1,1.61-1.11A5.37,5.37,0,0,1,280.45,60.36Zm.06,2.14a1.84,1.84,0,0,0-1.39.51,2.52,2.52,0,0,0-.66,1.45h3.87a2.55,2.55,0,0,0-.1-.72,1.65,1.65,0,0,0-.87-1.07A2,2,0,0,0,280.51,62.5Z" transform="translate(-58.76 -10.14)"/><path class="cls-8" d="M303.41,63.6a7.66,7.66,0,0,1-.55,2.94,6.87,6.87,0,0,1-3.92,3.94,8.69,8.69,0,0,1-6.19,0,7.09,7.09,0,0,1-2.4-1.57,7.19,7.19,0,0,1-1.54-2.37,8.27,8.27,0,0,1,0-5.88,6.93,6.93,0,0,1,3.94-3.93,8.11,8.11,0,0,1,3.1-.57,7.91,7.91,0,0,1,3.09.58,7.2,7.2,0,0,1,2.39,1.57,7.07,7.07,0,0,1,1.53,2.36A7.71,7.71,0,0,1,303.41,63.6Zm-3.46,0a6.44,6.44,0,0,0-.28-1.94,4.17,4.17,0,0,0-.81-1.47,3.59,3.59,0,0,0-1.28-.92,4.89,4.89,0,0,0-3.48,0,3.54,3.54,0,0,0-1.29.92,4,4,0,0,0-.8,1.47,6.14,6.14,0,0,0-.28,1.94,6.27,6.27,0,0,0,.28,2,4,4,0,0,0,.8,1.46,3.43,3.43,0,0,0,1.29.92,5,5,0,0,0,3.48,0,3.47,3.47,0,0,0,1.28-.92,4.22,4.22,0,0,0,.81-1.46A6.58,6.58,0,0,0,300,63.6Z" transform="translate(-58.76 -10.14)"/><path class="cls-8" d="M304.17,70.89v-15h3.1v5.7a4.6,4.6,0,0,1,1.31-.91,4,4,0,0,1,1.73-.35,3.31,3.31,0,0,1,1.5.35,3.52,3.52,0,0,1,1.19,1,5.26,5.26,0,0,1,.78,1.65,8,8,0,0,1,.29,2.23,6.79,6.79,0,0,1-.33,2.16,5.23,5.23,0,0,1-.91,1.72,4.05,4.05,0,0,1-1.4,1.14,3.85,3.85,0,0,1-1.8.41,3.52,3.52,0,0,1-.83-.09,3,3,0,0,1-.67-.25,2.73,2.73,0,0,1-.56-.4,5.81,5.81,0,0,1-.49-.5l-.11.52a.64.64,0,0,1-.26.44.85.85,0,0,1-.48.12Zm5.06-8.2a2.4,2.4,0,0,0-.62.07,2.21,2.21,0,0,0-.51.18,2.13,2.13,0,0,0-.43.31,3.22,3.22,0,0,0-.4.42v4.4a2,2,0,0,0,.76.55,2.47,2.47,0,0,0,.86.15,1.75,1.75,0,0,0,.79-.17,1.51,1.51,0,0,0,.62-.54,2.87,2.87,0,0,0,.42-1,6.07,6.07,0,0,0,.15-1.46,6.81,6.81,0,0,0-.12-1.38,2.69,2.69,0,0,0-.34-.9,1.28,1.28,0,0,0-.51-.5A1.5,1.5,0,0,0,309.23,62.69Z" transform="translate(-58.76 -10.14)"/><path class="cls-8" d="M314.91,70.89V60.52h1.84a1.92,1.92,0,0,1,.38,0,.64.64,0,0,1,.26.13.45.45,0,0,1,.16.22,2.31,2.31,0,0,1,.1.34l.17,1a5.08,5.08,0,0,1,1.28-1.39,2.59,2.59,0,0,1,1.55-.51,1.84,1.84,0,0,1,1.14.34l-.4,2.28a.48.48,0,0,1-.16.3.61.61,0,0,1-.32.08,2,2,0,0,1-.4,0,3.13,3.13,0,0,0-.58-.05,2.13,2.13,0,0,0-1.92,1.3v6.36Z" transform="translate(-58.76 -10.14)"/><path class="cls-8" d="M329.27,70.89a1.46,1.46,0,0,1-.67-.12.89.89,0,0,1-.37-.5L328,69.7a8.5,8.5,0,0,1-.75.58,4.68,4.68,0,0,1-.75.43,4.14,4.14,0,0,1-.82.26,5.64,5.64,0,0,1-1,.08,4.28,4.28,0,0,1-1.29-.18,2.79,2.79,0,0,1-1-.55,2.31,2.31,0,0,1-.62-.9,3.19,3.19,0,0,1-.22-1.24,2.58,2.58,0,0,1,.28-1.13,2.75,2.75,0,0,1,1-1.06,6.25,6.25,0,0,1,1.86-.8,11.54,11.54,0,0,1,2.95-.32v-.44a2,2,0,0,0-.38-1.33,1.37,1.37,0,0,0-1.06-.41,2.8,2.8,0,0,0-.9.12,4.11,4.11,0,0,0-.63.27l-.53.27a1.49,1.49,0,0,1-.62.12,1,1,0,0,1-.55-.15,1.09,1.09,0,0,1-.35-.39l-.56-1a6.29,6.29,0,0,1,2.08-1.23,7.34,7.34,0,0,1,2.46-.41,4.35,4.35,0,0,1,1.69.31,3.59,3.59,0,0,1,1.28.85,3.72,3.72,0,0,1,.81,1.29,4.82,4.82,0,0,1,.28,1.64v6.48ZM325.71,69a2.46,2.46,0,0,0,1.05-.21,3.12,3.12,0,0,0,.91-.68V66.69a8,8,0,0,0-1.53.12,3.64,3.64,0,0,0-.95.31,1.15,1.15,0,0,0-.49.41,1,1,0,0,0-.13.51.87.87,0,0,0,.29.75A1.42,1.42,0,0,0,325.71,69Z" transform="translate(-58.76 -10.14)"/><path class="cls-8" d="M338.37,62.79a.75.75,0,0,1-.26.27.59.59,0,0,1-.34.08,1.12,1.12,0,0,1-.44-.09l-.48-.21a5.36,5.36,0,0,0-.57-.2,2.39,2.39,0,0,0-.73-.1,1.55,1.55,0,0,0-.91.23.72.72,0,0,0-.31.62.63.63,0,0,0,.2.48,1.92,1.92,0,0,0,.55.34,6.79,6.79,0,0,0,.77.27l.88.29a7.53,7.53,0,0,1,.88.38,3.4,3.4,0,0,1,.77.53,2.33,2.33,0,0,1,.54.76,2.54,2.54,0,0,1,.21,1.08,3.63,3.63,0,0,1-.28,1.42,3,3,0,0,1-.84,1.12,3.74,3.74,0,0,1-1.37.73,6,6,0,0,1-1.87.26,5.36,5.36,0,0,1-1.06-.1,6.53,6.53,0,0,1-1.94-.67,4.15,4.15,0,0,1-.72-.51l.72-1.14a.92.92,0,0,1,.31-.31.82.82,0,0,1,.47-.12,1,1,0,0,1,.48.12l.47.26a3.15,3.15,0,0,0,.58.26,2.6,2.6,0,0,0,.85.12,2.18,2.18,0,0,0,.61-.07,1.08,1.08,0,0,0,.4-.21.77.77,0,0,0,.22-.29.88.88,0,0,0,.07-.33.69.69,0,0,0-.21-.51,1.84,1.84,0,0,0-.55-.34,5.89,5.89,0,0,0-.78-.27c-.29-.08-.58-.18-.88-.29a6.26,6.26,0,0,1-.89-.38,2.91,2.91,0,0,1-.77-.57,2.55,2.55,0,0,1-.55-.85,3.09,3.09,0,0,1-.21-1.21,3.14,3.14,0,0,1,.25-1.25,2.92,2.92,0,0,1,.77-1,3.58,3.58,0,0,1,1.28-.71,5.41,5.41,0,0,1,1.8-.27,6.38,6.38,0,0,1,1.08.1,6,6,0,0,1,1,.28,4.74,4.74,0,0,1,.84.43,4.47,4.47,0,0,1,.67.53Z" transform="translate(-58.76 -10.14)"/><path class="cls-8" d="M347.21,73.58a1.23,1.23,0,0,1-.34.46,1.19,1.19,0,0,1-.64.14h-2.32l2-4.2-4.14-9.46h2.74a.93.93,0,0,1,.56.16,1,1,0,0,1,.28.38l1.7,4.47a10.39,10.39,0,0,1,.39,1.24c.06-.21.14-.42.22-.63s.15-.41.23-.63l1.54-4.45a.71.71,0,0,1,.31-.38.88.88,0,0,1,.51-.16h2.5Z" transform="translate(-58.76 -10.14)"/><path class="cls-8" d="M364.29,59.28a1.28,1.28,0,0,1-.32.36.7.7,0,0,1-.42.12,1.12,1.12,0,0,1-.5-.14l-.6-.33a4.45,4.45,0,0,0-.76-.32,3,3,0,0,0-1-.15,2.11,2.11,0,0,0-1.42.41,1.36,1.36,0,0,0-.46,1.09,1,1,0,0,0,.28.73,2.24,2.24,0,0,0,.73.5,8.16,8.16,0,0,0,1,.39q.58.16,1.2.39a11.12,11.12,0,0,1,1.19.5,4.09,4.09,0,0,1,1,.74,3.6,3.6,0,0,1,.74,1.1,4,4,0,0,1,.28,1.55,5.08,5.08,0,0,1-.35,1.89,4.6,4.6,0,0,1-1,1.54,4.78,4.78,0,0,1-1.64,1,6.13,6.13,0,0,1-2.21.37,6.62,6.62,0,0,1-1.39-.14,7.85,7.85,0,0,1-1.36-.39,7.14,7.14,0,0,1-1.24-.61,4.75,4.75,0,0,1-1-.78l1-1.58a.79.79,0,0,1,.31-.29.89.89,0,0,1,.43-.11,1.17,1.17,0,0,1,.6.19l.69.42a4.6,4.6,0,0,0,.89.42,3.21,3.21,0,0,0,1.18.19,2.25,2.25,0,0,0,1.43-.4,1.55,1.55,0,0,0,.51-1.29,1.26,1.26,0,0,0-.28-.83,2.3,2.3,0,0,0-.74-.53,7.22,7.22,0,0,0-1-.37c-.39-.1-.79-.22-1.19-.35a8.22,8.22,0,0,1-1.19-.48,3.68,3.68,0,0,1-1-.75,3.48,3.48,0,0,1-.73-1.16,4.59,4.59,0,0,1-.28-1.72,4.13,4.13,0,0,1,1.3-3,4.75,4.75,0,0,1,1.57-1,5.66,5.66,0,0,1,2.13-.37,8,8,0,0,1,1.3.11,6.7,6.7,0,0,1,1.21.31,6,6,0,0,1,1.06.49,4.93,4.93,0,0,1,.89.64Z" transform="translate(-58.76 -10.14)"/><path class="cls-8" d="M370.59,60.36a5.41,5.41,0,0,1,1.88.32,4.06,4.06,0,0,1,2.43,2.43,5.48,5.48,0,0,1,.35,2,4.24,4.24,0,0,1,0,.57.9.9,0,0,1-.11.35.42.42,0,0,1-.22.18.84.84,0,0,1-.34.05h-6a2.91,2.91,0,0,0,.79,1.89,2.33,2.33,0,0,0,1.65.58,2.86,2.86,0,0,0,.93-.13,3.67,3.67,0,0,0,.69-.29l.56-.29a1.26,1.26,0,0,1,.54-.13.65.65,0,0,1,.56.27l.9,1.11a4.57,4.57,0,0,1-1,.9,5.38,5.38,0,0,1-1.14.54,6.18,6.18,0,0,1-1.17.27,8.7,8.7,0,0,1-1.11.07,6,6,0,0,1-2.05-.35A4.71,4.71,0,0,1,367,69.64a4.86,4.86,0,0,1-1.13-1.74,6.43,6.43,0,0,1-.41-2.42,5.42,5.42,0,0,1,.35-2,4.79,4.79,0,0,1,2.63-2.74A5.37,5.37,0,0,1,370.59,60.36Zm.06,2.14a1.84,1.84,0,0,0-1.39.51,2.52,2.52,0,0,0-.66,1.45h3.87a3,3,0,0,0-.1-.72,1.72,1.72,0,0,0-.31-.62,1.57,1.57,0,0,0-.56-.45A2,2,0,0,0,370.65,62.5Z" transform="translate(-58.76 -10.14)"/><path class="cls-8" d="M376.17,70.89V60.52H378a1.92,1.92,0,0,1,.38,0,.71.71,0,0,1,.26.13.52.52,0,0,1,.16.22,2.31,2.31,0,0,1,.1.34l.17,1a5.08,5.08,0,0,1,1.28-1.39,2.59,2.59,0,0,1,1.55-.51,1.84,1.84,0,0,1,1.14.34l-.4,2.28a.48.48,0,0,1-.16.3.61.61,0,0,1-.32.08,2,2,0,0,1-.4,0,3.13,3.13,0,0,0-.58-.05,2.13,2.13,0,0,0-1.92,1.3v6.36Z" transform="translate(-58.76 -10.14)"/><path class="cls-8" d="M389.31,70.89h-2.82l-4-10.37h2.58a.9.9,0,0,1,.55.16.81.81,0,0,1,.31.38l1.44,4.65c.11.38.22.75.32,1.11s.19.72.27,1.08a10.65,10.65,0,0,1,.27-1.08c.1-.36.22-.73.34-1.11l1.5-4.65a.73.73,0,0,1,.3-.38.83.83,0,0,1,.52-.16h2.46Z" transform="translate(-58.76 -10.14)"/><path class="cls-8" d="M397.33,57.68a1.66,1.66,0,0,1-.15.7,2.06,2.06,0,0,1-.41.57,2.27,2.27,0,0,1-.61.39,2,2,0,0,1-.73.14,1.83,1.83,0,0,1-.71-.14,2.16,2.16,0,0,1-.59-.39,2,2,0,0,1-.4-.57,1.66,1.66,0,0,1-.15-.7,1.71,1.71,0,0,1,.15-.71,1.94,1.94,0,0,1,.4-.58,2.16,2.16,0,0,1,.59-.39,1.83,1.83,0,0,1,.71-.14,2,2,0,0,1,.73.14,2.27,2.27,0,0,1,.61.39,2,2,0,0,1,.41.58A1.71,1.71,0,0,1,397.33,57.68ZM397,60.52V70.89h-3.1V60.52Z" transform="translate(-58.76 -10.14)"/><path class="cls-8" d="M406.08,63a1.35,1.35,0,0,1-.26.27.58.58,0,0,1-.37.1.73.73,0,0,1-.42-.11l-.41-.24a4.56,4.56,0,0,0-.54-.25,2.46,2.46,0,0,0-.77-.11,2.16,2.16,0,0,0-1,.21,1.78,1.78,0,0,0-.68.6,2.62,2.62,0,0,0-.4,1,5.51,5.51,0,0,0-.13,1.27,3.89,3.89,0,0,0,.57,2.29,1.83,1.83,0,0,0,1.59.8,2.2,2.2,0,0,0,.85-.13,2.73,2.73,0,0,0,.54-.3l.4-.31a.77.77,0,0,1,.47-.14.62.62,0,0,1,.55.27l.91,1.11a4.92,4.92,0,0,1-1,.9,5.26,5.26,0,0,1-1.09.54,5.61,5.61,0,0,1-1.11.27,8.29,8.29,0,0,1-1.09.07,4.69,4.69,0,0,1-1.82-.36,4.39,4.39,0,0,1-1.52-1,5,5,0,0,1-1-1.69,6.19,6.19,0,0,1-.39-2.28,6.49,6.49,0,0,1,.34-2.09,4.59,4.59,0,0,1,2.61-2.82,5.74,5.74,0,0,1,2.24-.41,5.48,5.48,0,0,1,2.14.39,5.24,5.24,0,0,1,1.66,1.14Z" transform="translate(-58.76 -10.14)"/><path class="cls-8" d="M411,57.68a1.66,1.66,0,0,1-.15.7,2.06,2.06,0,0,1-.41.57,2.27,2.27,0,0,1-.61.39,2,2,0,0,1-.73.14,1.83,1.83,0,0,1-.71-.14,2.16,2.16,0,0,1-.59-.39,2,2,0,0,1-.4-.57,1.65,1.65,0,0,1-.14-.7,1.7,1.7,0,0,1,.14-.71,1.94,1.94,0,0,1,.4-.58,2.16,2.16,0,0,1,.59-.39,1.83,1.83,0,0,1,.71-.14,2,2,0,0,1,.73.14,2.27,2.27,0,0,1,.61.39,2,2,0,0,1,.41.58A1.71,1.71,0,0,1,411,57.68Zm-.36,2.84V70.89h-3.1V60.52Z" transform="translate(-58.76 -10.14)"/><path class="cls-8" d="M416.93,60.36a6.18,6.18,0,0,1,2.15.37,4.77,4.77,0,0,1,1.66,1.06,4.86,4.86,0,0,1,1.08,1.68,6,6,0,0,1,.39,2.21,6.12,6.12,0,0,1-.39,2.24,5,5,0,0,1-1.08,1.69,4.8,4.8,0,0,1-1.66,1.07,6.49,6.49,0,0,1-4.32,0A4.68,4.68,0,0,1,412,67.92a6.12,6.12,0,0,1-.38-2.24,6,6,0,0,1,.38-2.21,4.74,4.74,0,0,1,1.09-1.68,4.86,4.86,0,0,1,1.68-1.06A6.21,6.21,0,0,1,416.93,60.36Zm0,8.39A1.76,1.76,0,0,0,418.5,68a5.42,5.42,0,0,0,0-4.59,1.76,1.76,0,0,0-1.57-.75,1.8,1.8,0,0,0-1.61.75,5.42,5.42,0,0,0,0,4.59A1.8,1.8,0,0,0,416.93,68.75Z" transform="translate(-58.76 -10.14)"/><path class="cls-8" d="M429.38,62.79a.74.74,0,0,1-.25.27.61.61,0,0,1-.34.08,1.2,1.2,0,0,1-.45-.09l-.47-.21a4.86,4.86,0,0,0-.58-.2,2.3,2.3,0,0,0-.73-.1,1.53,1.53,0,0,0-.9.23.73.73,0,0,0-.32.62.6.6,0,0,0,.21.48,2,2,0,0,0,.54.34c.23.09.49.19.77.27l.89.29a8.35,8.35,0,0,1,.88.38,3.14,3.14,0,0,1,.76.53,2.36,2.36,0,0,1,.55.76,2.54,2.54,0,0,1,.2,1.08,3.46,3.46,0,0,1-.28,1.42,2.86,2.86,0,0,1-.83,1.12,3.82,3.82,0,0,1-1.37.73,6,6,0,0,1-1.87.26,5.54,5.54,0,0,1-1.07-.1,5.89,5.89,0,0,1-1-.27,5.43,5.43,0,0,1-.91-.4,3.89,3.89,0,0,1-.73-.51l.73-1.14a.89.89,0,0,1,.3-.31.84.84,0,0,1,.47-.12,1,1,0,0,1,.49.12l.46.26a3.6,3.6,0,0,0,.59.26,2.49,2.49,0,0,0,.84.12,2.13,2.13,0,0,0,.61-.07,1.13,1.13,0,0,0,.41-.21.75.75,0,0,0,.21-.29.72.72,0,0,0-.13-.84,1.9,1.9,0,0,0-.56-.34,5.27,5.27,0,0,0-.77-.27c-.29-.08-.58-.18-.88-.29a5.81,5.81,0,0,1-.89-.38,2.91,2.91,0,0,1-.77-.57,2.57,2.57,0,0,1-.56-.85,3.09,3.09,0,0,1-.21-1.21,3.15,3.15,0,0,1,.26-1.25,2.89,2.89,0,0,1,.76-1,3.63,3.63,0,0,1,1.29-.71,5.39,5.39,0,0,1,1.79-.27,6.4,6.4,0,0,1,1.09.1,6,6,0,0,1,1,.28,4.74,4.74,0,0,1,.84.43,3.93,3.93,0,0,1,.66.53Z" transform="translate(-58.76 -10.14)"/><path class="cls-8" d="M437.36,66v4.87H434V56.32h5.14a8.31,8.31,0,0,1,2.65.37,5.12,5.12,0,0,1,1.82,1,3.83,3.83,0,0,1,1.05,1.51,5.06,5.06,0,0,1,.34,1.88,5.35,5.35,0,0,1-.35,2,3.93,3.93,0,0,1-1.07,1.56,5,5,0,0,1-1.82,1,8.51,8.51,0,0,1-2.62.36Zm0-2.55h1.76a2.14,2.14,0,0,0,2.48-2.39,2.67,2.67,0,0,0-.15-.91,1.84,1.84,0,0,0-.45-.7,2,2,0,0,0-.77-.46,3.62,3.62,0,0,0-1.11-.16h-1.76Z" transform="translate(-58.76 -10.14)"/><path class="cls-8" d="M448.78,60.52V67.1a1.82,1.82,0,0,0,.35,1.19,1.28,1.28,0,0,0,1,.42,2.24,2.24,0,0,0,1-.21,3.3,3.3,0,0,0,.86-.59V60.52h3.1V70.89h-1.92a.73.73,0,0,1-.76-.52l-.19-.6a5.12,5.12,0,0,1-.62.53,3.57,3.57,0,0,1-.68.4,4.57,4.57,0,0,1-.79.26,4.35,4.35,0,0,1-.92.09,3.55,3.55,0,0,1-1.5-.29,3.06,3.06,0,0,1-1.11-.83,3.68,3.68,0,0,1-.68-1.25,5.24,5.24,0,0,1-.23-1.58V60.52Zm5.64-4.36-2.6,2.63a1.53,1.53,0,0,1-.44.33,1.42,1.42,0,0,1-.56.09H449l1.36-2.45a1.44,1.44,0,0,1,.4-.44,1.23,1.23,0,0,1,.7-.16Z" transform="translate(-58.76 -10.14)"/><path class="cls-8" d="M456.62,70.89v-15h3.1v5.7a4.79,4.79,0,0,1,1.32-.91,4,4,0,0,1,1.72-.35,3.31,3.31,0,0,1,1.5.35,3.43,3.43,0,0,1,1.19,1,5.06,5.06,0,0,1,.79,1.65,8.05,8.05,0,0,1,.28,2.23,6.8,6.8,0,0,1-.32,2.16,5.42,5.42,0,0,1-.91,1.72,4.14,4.14,0,0,1-1.4,1.14,3.89,3.89,0,0,1-1.81.41,3.43,3.43,0,0,1-.82-.09,2.81,2.81,0,0,1-.67-.25,2.73,2.73,0,0,1-.56-.4,5.9,5.9,0,0,1-.5-.5l-.11.52a.63.63,0,0,1-.25.44.91.91,0,0,1-.49.12Zm5.06-8.2a2.32,2.32,0,0,0-.61.07,2,2,0,0,0-.95.49,5.5,5.5,0,0,0-.4.42v4.4a2.13,2.13,0,0,0,.76.55,2.51,2.51,0,0,0,.86.15,1.73,1.73,0,0,0,.79-.17,1.6,1.6,0,0,0,.63-.54,2.86,2.86,0,0,0,.41-1,6.07,6.07,0,0,0,.15-1.46,6.81,6.81,0,0,0-.12-1.38,2.93,2.93,0,0,0-.33-.9,1.3,1.3,0,0,0-.52-.5A1.47,1.47,0,0,0,461.68,62.69Z" transform="translate(-58.76 -10.14)"/><path class="cls-8" d="M470.56,55.92v15h-3.1v-15Z" transform="translate(-58.76 -10.14)"/><path class="cls-8" d="M475.76,57.68a1.66,1.66,0,0,1-.15.7,1.88,1.88,0,0,1-.41.57,2.07,2.07,0,0,1-.6.39,2,2,0,0,1-.74.14,1.87,1.87,0,0,1-.71-.14,2.11,2.11,0,0,1-.58-.39,1.84,1.84,0,0,1-.4-.57,1.66,1.66,0,0,1-.15-.7,1.71,1.71,0,0,1,.15-.71,1.77,1.77,0,0,1,.4-.58,2.11,2.11,0,0,1,.58-.39,1.87,1.87,0,0,1,.71-.14,2,2,0,0,1,.74.14,2.07,2.07,0,0,1,.6.39,1.8,1.8,0,0,1,.41.58A1.71,1.71,0,0,1,475.76,57.68Zm-.36,2.84V70.89h-3.1V60.52Z" transform="translate(-58.76 -10.14)"/><path class="cls-8" d="M484.52,63a1.15,1.15,0,0,1-.27.27.56.56,0,0,1-.37.1.72.72,0,0,1-.41-.11l-.42-.24a3.44,3.44,0,0,0-.54-.25,2.37,2.37,0,0,0-.77-.11,2.12,2.12,0,0,0-1,.21,1.81,1.81,0,0,0-.69.6,2.81,2.81,0,0,0-.4,1,6.12,6.12,0,0,0-.13,1.27,3.82,3.82,0,0,0,.58,2.29,1.82,1.82,0,0,0,1.58.8,2.25,2.25,0,0,0,.86-.13,2.38,2.38,0,0,0,.53-.3l.41-.31a.76.76,0,0,1,.46-.14.63.63,0,0,1,.56.27l.9,1.11a4.67,4.67,0,0,1-1,.9,5,5,0,0,1-1.08.54,5.54,5.54,0,0,1-1.12.27,8.08,8.08,0,0,1-1.09.07,4.64,4.64,0,0,1-1.81-.36,4.3,4.3,0,0,1-1.52-1,4.87,4.87,0,0,1-1-1.69,6.73,6.73,0,0,1-.05-4.37,4.69,4.69,0,0,1,1-1.69,4.54,4.54,0,0,1,1.62-1.13,5.72,5.72,0,0,1,2.23-.41,5.41,5.41,0,0,1,2.14.39,5,5,0,0,1,1.66,1.14Z" transform="translate(-58.76 -10.14)"/><path class="cls-8" d="M490.52,60.36a6.1,6.1,0,0,1,2.15.37,4.72,4.72,0,0,1,1.67,1.06,4.86,4.86,0,0,1,1.08,1.68,6.17,6.17,0,0,1,.38,2.21,6.34,6.34,0,0,1-.38,2.24,5,5,0,0,1-1.08,1.69,4.75,4.75,0,0,1-1.67,1.07,5.88,5.88,0,0,1-2.15.37,6,6,0,0,1-2.16-.37,4.88,4.88,0,0,1-1.68-1.07,4.74,4.74,0,0,1-1.09-1.69,6.12,6.12,0,0,1-.39-2.24,6,6,0,0,1,.39-2.21,4.61,4.61,0,0,1,1.09-1.68,4.86,4.86,0,0,1,1.68-1.06A6.19,6.19,0,0,1,490.52,60.36Zm0,8.39A1.77,1.77,0,0,0,492.1,68a5.52,5.52,0,0,0,0-4.59,1.77,1.77,0,0,0-1.58-.75,1.81,1.81,0,0,0-1.61.75,5.42,5.42,0,0,0,0,4.59A1.81,1.81,0,0,0,490.52,68.75Z" transform="translate(-58.76 -10.14)"/><path class="cls-8" d="M503,62.79a.74.74,0,0,1-.25.27.63.63,0,0,1-.35.08,1.19,1.19,0,0,1-.44-.09l-.47-.21a4.86,4.86,0,0,0-.58-.2,2.3,2.3,0,0,0-.73-.1,1.53,1.53,0,0,0-.9.23.73.73,0,0,0-.32.62.6.6,0,0,0,.21.48,1.86,1.86,0,0,0,.54.34c.23.09.49.19.77.27l.88.29a6.87,6.87,0,0,1,.88.38,3,3,0,0,1,.77.53,2.36,2.36,0,0,1,.55.76,2.7,2.7,0,0,1,.2,1.08,3.46,3.46,0,0,1-.28,1.42,2.86,2.86,0,0,1-.83,1.12,3.82,3.82,0,0,1-1.37.73,6,6,0,0,1-1.88.26,5.51,5.51,0,0,1-1.06-.1,6.81,6.81,0,0,1-1.94-.67,4.15,4.15,0,0,1-.72-.51l.72-1.14a1,1,0,0,1,.31-.31.84.84,0,0,1,.47-.12,1,1,0,0,1,.49.12l.46.26a3.26,3.26,0,0,0,.59.26,2.49,2.49,0,0,0,.84.12,2.13,2.13,0,0,0,.61-.07,1,1,0,0,0,.4-.21.68.68,0,0,0,.22-.29.72.72,0,0,0,.07-.33.69.69,0,0,0-.21-.51,1.72,1.72,0,0,0-.55-.34,5.27,5.27,0,0,0-.77-.27c-.29-.08-.59-.18-.89-.29a6.15,6.15,0,0,1-.88-.38,3.13,3.13,0,0,1-.78-.57,2.71,2.71,0,0,1-.55-.85,3.09,3.09,0,0,1-.21-1.21,3.15,3.15,0,0,1,.26-1.25,2.89,2.89,0,0,1,.76-1,3.67,3.67,0,0,1,1.28-.71,5.5,5.5,0,0,1,1.8-.27,6.4,6.4,0,0,1,1.09.1,5.61,5.61,0,0,1,1,.28,4.14,4.14,0,0,1,.84.43,3.64,3.64,0,0,1,.67.53Z" transform="translate(-58.76 -10.14)"/><path class="cls-8" d="M189.29,91.88h-2.62a1.18,1.18,0,0,1-.72-.2,1,1,0,0,1-.4-.53l-.86-2.53h-5.54l-.86,2.53a1.17,1.17,0,0,1-.39.51,1.11,1.11,0,0,1-.71.22h-2.64l5.64-14.57h3.46Zm-9.36-5.57h4l-1.34-4c-.09-.25-.19-.55-.3-.89s-.24-.72-.35-1.12q-.16.61-.33,1.14c-.11.34-.22.64-.32.89Z" transform="translate(-58.76 -10.14)"/><path class="cls-8" d="M192.81,81.33a6.22,6.22,0,0,1,1.25.13,5.08,5.08,0,0,1,1.08.37h3.13V83a.61.61,0,0,1-.14.42,1.23,1.23,0,0,1-.5.23l-.76.17a3.2,3.2,0,0,1-.18,2.33,3.32,3.32,0,0,1-.89,1,4.32,4.32,0,0,1-1.34.67,5.49,5.49,0,0,1-1.65.23,6.67,6.67,0,0,1-.92-.06c-.23.14-.34.29-.34.47a.4.4,0,0,0,.28.38,2.41,2.41,0,0,0,.72.16c.3,0,.64,0,1,0a11.81,11.81,0,0,1,1.18.06,11.58,11.58,0,0,1,1.18.18,3.07,3.07,0,0,1,1,.43,2.25,2.25,0,0,1,.73.77,2.56,2.56,0,0,1,.27,1.24,3,3,0,0,1-.34,1.38,3.72,3.72,0,0,1-1,1.19,5.16,5.16,0,0,1-1.62.84,7,7,0,0,1-2.2.32,8.09,8.09,0,0,1-2.1-.24,5,5,0,0,1-1.47-.6,2.58,2.58,0,0,1-.87-.87,2,2,0,0,1-.28-1,1.67,1.67,0,0,1,.42-1.16,2.74,2.74,0,0,1,1.15-.75,1.76,1.76,0,0,1-.56-.59,1.78,1.78,0,0,1-.21-.91,1.72,1.72,0,0,1,.08-.48,1.8,1.8,0,0,1,.25-.5,2.61,2.61,0,0,1,.43-.46,3.3,3.3,0,0,1,.62-.39A3.32,3.32,0,0,1,189,86.36a3.15,3.15,0,0,1-.14-3.06,3.08,3.08,0,0,1,.91-1.06,4.27,4.27,0,0,1,1.35-.67A5.7,5.7,0,0,1,192.81,81.33Zm2.3,10.91a.58.58,0,0,0-.15-.41,1.22,1.22,0,0,0-.42-.24,2.71,2.71,0,0,0-.62-.13,6.23,6.23,0,0,0-.77,0h-.85a4.27,4.27,0,0,1-.87-.08,1.84,1.84,0,0,0-.47.45.86.86,0,0,0-.19.55.77.77,0,0,0,.1.4.71.71,0,0,0,.33.31,2.16,2.16,0,0,0,.65.21,5.81,5.81,0,0,0,1,.07,5.63,5.63,0,0,0,1.1-.08,2.33,2.33,0,0,0,.69-.22.88.88,0,0,0,.35-.34A1,1,0,0,0,195.11,92.24Zm-2.3-6.09a1.27,1.27,0,0,0,1.46-1.37,1.37,1.37,0,0,0-.34-1,1.47,1.47,0,0,0-1.12-.37,1.44,1.44,0,0,0-1.11.37,1.37,1.37,0,0,0-.35,1,1.57,1.57,0,0,0,.09.54,1,1,0,0,0,.26.44,1.25,1.25,0,0,0,.46.29A1.81,1.81,0,0,0,192.81,86.15Z" transform="translate(-58.76 -10.14)"/><path class="cls-8" d="M201.19,81.51v6.58a1.86,1.86,0,0,0,.35,1.2,1.3,1.3,0,0,0,1,.42,2.25,2.25,0,0,0,1-.22,3.23,3.23,0,0,0,.86-.59V81.51h3.1V91.88h-1.92a.73.73,0,0,1-.76-.51l-.19-.61a6,6,0,0,1-.62.53,3.57,3.57,0,0,1-.68.4,4.06,4.06,0,0,1-.79.26,4.42,4.42,0,0,1-.92.09,3.52,3.52,0,0,1-1.5-.29,3.06,3.06,0,0,1-1.11-.83,3.52,3.52,0,0,1-.68-1.25,5.19,5.19,0,0,1-.23-1.58V81.51Z" transform="translate(-58.76 -10.14)"/><path class="cls-8" d="M215.73,91.88a1.44,1.44,0,0,1-.66-.12.9.9,0,0,1-.38-.5l-.22-.56c-.26.21-.51.41-.75.58a6.08,6.08,0,0,1-.74.42,3.73,3.73,0,0,1-.82.26,4.88,4.88,0,0,1-1,.08,4.37,4.37,0,0,1-1.29-.18,2.6,2.6,0,0,1-1-.55,2.44,2.44,0,0,1-.63-.9,3.14,3.14,0,0,1-.22-1.23,2.58,2.58,0,0,1,.28-1.14,2.83,2.83,0,0,1,1-1.06,6.25,6.25,0,0,1,1.86-.79,11.11,11.11,0,0,1,2.95-.32v-.45a2,2,0,0,0-.37-1.33,1.39,1.39,0,0,0-1.07-.41,2.8,2.8,0,0,0-.9.12,4,4,0,0,0-.62.27l-.54.27a1.46,1.46,0,0,1-.62.12,1,1,0,0,1-.54-.15,1.12,1.12,0,0,1-.36-.39l-.56-1a6.2,6.2,0,0,1,2.09-1.24,7.28,7.28,0,0,1,2.45-.41,4.6,4.6,0,0,1,1.7.31,3.58,3.58,0,0,1,2.08,2.14,4.59,4.59,0,0,1,.28,1.64v6.48ZM212.17,90a2.62,2.62,0,0,0,1.05-.2,3.53,3.53,0,0,0,.91-.68V87.68a7.2,7.2,0,0,0-1.53.13,3.67,3.67,0,0,0-.95.3,1.18,1.18,0,0,0-.48.41A1,1,0,0,0,211,89a.9.9,0,0,0,.29.75A1.44,1.44,0,0,0,212.17,90Z" transform="translate(-58.76 -10.14)"/><path class="cls-8" d="M224.81,94.57a1.13,1.13,0,0,1-.34.46,1.08,1.08,0,0,1-.64.14h-2.32l2-4.2-4.14-9.46h2.74a.82.82,0,0,1,.84.54l1.7,4.48a9.71,9.71,0,0,1,.39,1.23c.07-.21.14-.42.22-.63s.16-.41.23-.63L227,82.05a.73.73,0,0,1,.32-.38.9.9,0,0,1,.5-.16h2.5Z" transform="translate(-58.76 -10.14)"/><path class="cls-8" d="M240.69,86c.12.28.24.56.35.85.11-.3.23-.58.36-.86s.26-.55.39-.81l3.74-7.36a1.72,1.72,0,0,1,.2-.3.61.61,0,0,1,.24-.15.7.7,0,0,1,.3-.06h3V91.88h-3V83.5q0-.6.06-1.32l-3.86,7.49a1.29,1.29,0,0,1-.49.54,1.41,1.41,0,0,1-.69.17h-.46a1.48,1.48,0,0,1-.7-.17,1.33,1.33,0,0,1-.48-.54l-3.88-7.5c0,.24.05.47.06.7s0,.44,0,.63v8.38h-3V77.32h3a.73.73,0,0,1,.3.06.57.57,0,0,1,.23.15,1,1,0,0,1,.21.3l3.75,7.39Z" transform="translate(-58.76 -10.14)"/><path class="cls-8" d="M254.75,81.36a5.37,5.37,0,0,1,1.88.31,4.13,4.13,0,0,1,2.43,2.43,5.5,5.5,0,0,1,.35,2,4.17,4.17,0,0,1,0,.56,1,1,0,0,1-.11.36.49.49,0,0,1-.22.18,1.09,1.09,0,0,1-.34,0h-6a2.91,2.91,0,0,0,.79,1.89,2.36,2.36,0,0,0,1.65.58,2.86,2.86,0,0,0,.93-.13,3.67,3.67,0,0,0,.69-.29l.56-.29a1.26,1.26,0,0,1,.54-.13.64.64,0,0,1,.56.27l.9,1.11a4.57,4.57,0,0,1-1,.9,5.38,5.38,0,0,1-1.14.54A6.18,6.18,0,0,1,256,92a8.7,8.7,0,0,1-1.11.07,5.77,5.77,0,0,1-2-.35,4.8,4.8,0,0,1-1.67-1.06A5,5,0,0,1,250,88.89a6.63,6.63,0,0,1-.41-2.42,5.68,5.68,0,0,1,.35-2,4.85,4.85,0,0,1,1-1.62,5,5,0,0,1,1.61-1.12A5.41,5.41,0,0,1,254.75,81.36Zm.06,2.13a1.86,1.86,0,0,0-1.39.51,2.68,2.68,0,0,0-.66,1.46h3.87a2.57,2.57,0,0,0-.1-.73,1.58,1.58,0,0,0-.31-.62,1.69,1.69,0,0,0-.56-.45A2,2,0,0,0,254.81,83.49Z" transform="translate(-58.76 -10.14)"/><path class="cls-8" d="M267.15,91.88a.85.85,0,0,1-.49-.13.64.64,0,0,1-.27-.38l-.24-.8a6.08,6.08,0,0,1-.65.6,3.57,3.57,0,0,1-.74.47,3.71,3.71,0,0,1-.85.3,4.34,4.34,0,0,1-1,.1,3.19,3.19,0,0,1-1.5-.36,3.26,3.26,0,0,1-1.19-1,5.23,5.23,0,0,1-.79-1.66,8.15,8.15,0,0,1-.28-2.25,7.07,7.07,0,0,1,.32-2.15,5.21,5.21,0,0,1,.9-1.72,4.33,4.33,0,0,1,1.41-1.14,4,4,0,0,1,1.81-.41,3.4,3.4,0,0,1,1.35.24,4.12,4.12,0,0,1,1,.61V76.91h3.1v15ZM264,89.66a2.8,2.8,0,0,0,.61-.06,1.93,1.93,0,0,0,.51-.19,2.49,2.49,0,0,0,.43-.29,4.09,4.09,0,0,0,.41-.42V84.29a2.13,2.13,0,0,0-.77-.54,2.42,2.42,0,0,0-.85-.16,1.86,1.86,0,0,0-.79.17,1.72,1.72,0,0,0-.63.55,3,3,0,0,0-.41,1,6,6,0,0,0-.15,1.44,6.84,6.84,0,0,0,.12,1.39,2.93,2.93,0,0,0,.33.9,1.32,1.32,0,0,0,1.19.64Z" transform="translate(-58.76 -10.14)"/><path class="cls-8" d="M273.71,78.67a1.66,1.66,0,0,1-.15.7,1.81,1.81,0,0,1-.41.57,2.12,2.12,0,0,1-.61.39,1.79,1.79,0,0,1-.73.14,1.7,1.7,0,0,1-.71-.14,2.16,2.16,0,0,1-.59-.39,1.78,1.78,0,0,1-.4-.57,1.82,1.82,0,0,1-.14-.7,1.87,1.87,0,0,1,.14-.71,1.94,1.94,0,0,1,.4-.58,2.16,2.16,0,0,1,.59-.39,1.87,1.87,0,0,1,.71-.13,2,2,0,0,1,.73.13,2.12,2.12,0,0,1,.61.39,2,2,0,0,1,.41.58A1.71,1.71,0,0,1,273.71,78.67Zm-.36,2.84V91.88h-3.1V81.51Z" transform="translate(-58.76 -10.14)"/><path class="cls-8" d="M279.15,81.36a6.14,6.14,0,0,1,2.15.36A4.57,4.57,0,0,1,283,82.79,4.47,4.47,0,0,1,284,84.46a6,6,0,0,1,.39,2.21,6.08,6.08,0,0,1-.39,2.24A4.63,4.63,0,0,1,283,90.6a4.7,4.7,0,0,1-1.66,1.07,5.92,5.92,0,0,1-2.15.37,6,6,0,0,1-2.17-.37,4.88,4.88,0,0,1-1.68-1.07,4.78,4.78,0,0,1-1.09-1.69,6.3,6.3,0,0,1-.38-2.24,6.21,6.21,0,0,1,.38-2.21,4.61,4.61,0,0,1,1.09-1.67A4.74,4.74,0,0,1,277,81.72,6.25,6.25,0,0,1,279.15,81.36Zm0,8.38a1.75,1.75,0,0,0,1.57-.75,5.42,5.42,0,0,0,0-4.59,1.75,1.75,0,0,0-1.57-.75,1.81,1.81,0,0,0-1.61.75,5.42,5.42,0,0,0,0,4.59A1.81,1.81,0,0,0,279.15,89.74Z" transform="translate(-58.76 -10.14)"/><path class="cls-8" d="M300.91,91.88h-2.62a1.21,1.21,0,0,1-.73-.2,1,1,0,0,1-.39-.53l-.86-2.53h-5.54l-.86,2.53a1.17,1.17,0,0,1-.39.51,1.11,1.11,0,0,1-.71.22h-2.64l5.64-14.57h3.46Zm-9.36-5.57h4l-1.34-4-.31-.89c-.11-.34-.23-.72-.34-1.12q-.17.61-.33,1.14c-.11.34-.22.64-.32.89Z" transform="translate(-58.76 -10.14)"/><path class="cls-8" d="M300.77,91.88V81.51h1.92a.9.9,0,0,1,.48.13.75.75,0,0,1,.28.4l.17.55a5,5,0,0,1,.54-.49,3.43,3.43,0,0,1,.6-.39,3.25,3.25,0,0,1,.7-.26,3.58,3.58,0,0,1,.83-.09,2.43,2.43,0,0,1,1.55.48,3,3,0,0,1,.94,1.29,3,3,0,0,1,.63-.82,3.62,3.62,0,0,1,.81-.55,4.13,4.13,0,0,1,.92-.3,4.63,4.63,0,0,1,1-.1,4.33,4.33,0,0,1,1.58.26,3,3,0,0,1,1.15.77,3.36,3.36,0,0,1,.71,1.24,5.32,5.32,0,0,1,.24,1.66v6.59h-3.1V85.29c0-1.07-.46-1.61-1.38-1.61a1.42,1.42,0,0,0-1.05.42,1.65,1.65,0,0,0-.41,1.19v6.59h-3.1V85.29A1.81,1.81,0,0,0,306.4,84a1.37,1.37,0,0,0-1-.36,1.72,1.72,0,0,0-.8.2,2.74,2.74,0,0,0-.7.5v7.5Z" transform="translate(-58.76 -10.14)"/><path class="cls-8" d="M316.67,91.88v-15h3.1v5.71a4.57,4.57,0,0,1,1.31-.92,4,4,0,0,1,1.73-.34,3.19,3.19,0,0,1,1.5.35,3.3,3.3,0,0,1,1.19,1,5.26,5.26,0,0,1,.78,1.65,8.06,8.06,0,0,1,.29,2.24,6.84,6.84,0,0,1-.33,2.16,5.28,5.28,0,0,1-.91,1.71,4.05,4.05,0,0,1-1.4,1.14,3.85,3.85,0,0,1-1.8.41,4.17,4.17,0,0,1-.83-.08,3.58,3.58,0,0,1-.67-.26,2.73,2.73,0,0,1-.56-.4,5.81,5.81,0,0,1-.49-.5l-.11.52a.64.64,0,0,1-.26.44.85.85,0,0,1-.48.12Zm5.06-8.2a2.94,2.94,0,0,0-.62.07,2.8,2.8,0,0,0-.51.18,2.13,2.13,0,0,0-.43.31,4.06,4.06,0,0,0-.4.42v4.4a1.87,1.87,0,0,0,.76.55,2.47,2.47,0,0,0,.86.15,1.73,1.73,0,0,0,.79-.17,1.51,1.51,0,0,0,.62-.54,2.87,2.87,0,0,0,.42-1,6,6,0,0,0,.15-1.45,6.84,6.84,0,0,0-.12-1.39,2.69,2.69,0,0,0-.34-.9,1.28,1.28,0,0,0-.51-.5A1.47,1.47,0,0,0,321.73,83.68Z" transform="translate(-58.76 -10.14)"/><path class="cls-8" d="M330.51,78.67a1.66,1.66,0,0,1-.15.7,1.81,1.81,0,0,1-.41.57,2.27,2.27,0,0,1-.61.39,1.79,1.79,0,0,1-.73.14,1.67,1.67,0,0,1-.71-.14,2.16,2.16,0,0,1-.59-.39,1.78,1.78,0,0,1-.4-.57,1.82,1.82,0,0,1-.14-.7,1.87,1.87,0,0,1,.14-.71,1.94,1.94,0,0,1,.4-.58,2.16,2.16,0,0,1,.59-.39,1.83,1.83,0,0,1,.71-.13,2,2,0,0,1,.73.13,2.27,2.27,0,0,1,.61.39,2,2,0,0,1,.41.58A1.71,1.71,0,0,1,330.51,78.67Zm-.36,2.84V91.88h-3.1V81.51Z" transform="translate(-58.76 -10.14)"/><path class="cls-8" d="M335.77,81.36a5.41,5.41,0,0,1,1.88.31,4.13,4.13,0,0,1,2.43,2.43,5.5,5.5,0,0,1,.35,2,4.17,4.17,0,0,1,0,.56,1,1,0,0,1-.11.36.55.55,0,0,1-.22.18,1.09,1.09,0,0,1-.34,0h-6a2.91,2.91,0,0,0,.79,1.89,2.33,2.33,0,0,0,1.65.58,2.86,2.86,0,0,0,.93-.13,3.67,3.67,0,0,0,.69-.29l.56-.29a1.26,1.26,0,0,1,.54-.13.65.65,0,0,1,.56.27l.9,1.11a4.57,4.57,0,0,1-1,.9,5.38,5.38,0,0,1-1.14.54A6.18,6.18,0,0,1,337,92a8.7,8.7,0,0,1-1.11.07,5.77,5.77,0,0,1-2.05-.35,4.8,4.8,0,0,1-1.67-1.06,5,5,0,0,1-1.13-1.74,6.63,6.63,0,0,1-.41-2.42,5.68,5.68,0,0,1,.35-2,4.85,4.85,0,0,1,1-1.62,5,5,0,0,1,1.61-1.12A5.37,5.37,0,0,1,335.77,81.36Zm.06,2.13a1.84,1.84,0,0,0-1.39.51,2.55,2.55,0,0,0-.66,1.46h3.87a2.57,2.57,0,0,0-.1-.73,1.58,1.58,0,0,0-.31-.62,1.69,1.69,0,0,0-.56-.45A2,2,0,0,0,335.83,83.49Z" transform="translate(-58.76 -10.14)"/><path class="cls-8" d="M340.89,91.88V81.51h1.92a.9.9,0,0,1,.48.13.75.75,0,0,1,.28.4l.18.59a7.64,7.64,0,0,1,.62-.51,3.62,3.62,0,0,1,.68-.41,4.06,4.06,0,0,1,.79-.26,4.52,4.52,0,0,1,.93-.09,3.55,3.55,0,0,1,1.5.29,3.15,3.15,0,0,1,1.11.82,3.68,3.68,0,0,1,.68,1.25,5.27,5.27,0,0,1,.23,1.57v6.59h-3.1V85.29a1.82,1.82,0,0,0-.35-1.18,1.28,1.28,0,0,0-1-.43,2.25,2.25,0,0,0-1,.22,4,4,0,0,0-.86.59v7.39Z" transform="translate(-58.76 -10.14)"/><path class="cls-8" d="M354.81,92a3.75,3.75,0,0,1-1.31-.21,2.68,2.68,0,0,1-.95-.61,2.57,2.57,0,0,1-.58-1,3.53,3.53,0,0,1-.2-1.25V83.65h-.88a.59.59,0,0,1-.41-.15.57.57,0,0,1-.17-.46V81.83l1.65-.32.61-2.53a.61.61,0,0,1,.68-.48h1.62v3h2.52v2.11h-2.52V88.8a1,1,0,0,0,.17.6.59.59,0,0,0,.51.23,1.09,1.09,0,0,0,.28,0,.76.76,0,0,0,.2-.08l.16-.08a.48.48,0,0,1,.18,0,.36.36,0,0,1,.22.07.72.72,0,0,1,.18.2l.94,1.47a4.09,4.09,0,0,1-1.35.68A5.38,5.38,0,0,1,354.81,92Z" transform="translate(-58.76 -10.14)"/><path class="cls-8" d="M362.29,81.36a5.41,5.41,0,0,1,1.88.31,4.13,4.13,0,0,1,2.43,2.43,5.5,5.5,0,0,1,.35,2,4.17,4.17,0,0,1,0,.56,1,1,0,0,1-.11.36.55.55,0,0,1-.22.18,1.09,1.09,0,0,1-.34,0h-6a2.91,2.91,0,0,0,.79,1.89,2.33,2.33,0,0,0,1.65.58,2.86,2.86,0,0,0,.93-.13,3.67,3.67,0,0,0,.69-.29l.56-.29a1.26,1.26,0,0,1,.54-.13.65.65,0,0,1,.56.27l.9,1.11a4.57,4.57,0,0,1-1,.9,5.38,5.38,0,0,1-1.14.54,6.18,6.18,0,0,1-1.17.27,8.7,8.7,0,0,1-1.11.07,5.77,5.77,0,0,1-2.05-.35,4.8,4.8,0,0,1-1.67-1.06,5,5,0,0,1-1.13-1.74,6.63,6.63,0,0,1-.41-2.42,5.68,5.68,0,0,1,.35-2,4.85,4.85,0,0,1,1-1.62,5,5,0,0,1,1.61-1.12A5.37,5.37,0,0,1,362.29,81.36Zm.06,2.13A1.84,1.84,0,0,0,361,84a2.55,2.55,0,0,0-.66,1.46h3.87a2.57,2.57,0,0,0-.1-.73,1.58,1.58,0,0,0-.31-.62,1.69,1.69,0,0,0-.56-.45A2,2,0,0,0,362.35,83.49Z" transform="translate(-58.76 -10.14)"/><path class="cls-8" d="M377.23,91.88a.83.83,0,0,1-.49-.13.64.64,0,0,1-.27-.38l-.24-.8a7.22,7.22,0,0,1-.65.6,3.57,3.57,0,0,1-.74.47,3.89,3.89,0,0,1-.85.3,4.34,4.34,0,0,1-1,.1,3.19,3.19,0,0,1-1.5-.36,3.26,3.26,0,0,1-1.19-1,5,5,0,0,1-.79-1.66,8.15,8.15,0,0,1-.28-2.25,6.78,6.78,0,0,1,.32-2.15,5.21,5.21,0,0,1,.9-1.72,4.33,4.33,0,0,1,1.41-1.14,4,4,0,0,1,1.81-.41,3.4,3.4,0,0,1,1.35.24,4.12,4.12,0,0,1,1,.61V76.91h3.1v15Zm-3.14-2.22a2.87,2.87,0,0,0,.61-.06,2.07,2.07,0,0,0,.51-.19,3,3,0,0,0,.43-.29,5.48,5.48,0,0,0,.41-.42V84.29a2.13,2.13,0,0,0-.77-.54,2.42,2.42,0,0,0-.85-.16,1.86,1.86,0,0,0-.79.17,1.72,1.72,0,0,0-.63.55,2.78,2.78,0,0,0-.41,1,6,6,0,0,0-.15,1.44,6.84,6.84,0,0,0,.12,1.39,2.93,2.93,0,0,0,.33.9,1.28,1.28,0,0,0,.52.49A1.35,1.35,0,0,0,374.09,89.66Z" transform="translate(-58.76 -10.14)"/><path class="cls-8" d="M384.67,81.36a5.41,5.41,0,0,1,1.88.31A4.13,4.13,0,0,1,389,84.1a5.5,5.5,0,0,1,.35,2,4.17,4.17,0,0,1,0,.56,1,1,0,0,1-.11.36.55.55,0,0,1-.22.18,1.09,1.09,0,0,1-.34,0h-6a2.91,2.91,0,0,0,.79,1.89,2.33,2.33,0,0,0,1.65.58,2.86,2.86,0,0,0,.93-.13,3.67,3.67,0,0,0,.69-.29l.56-.29a1.26,1.26,0,0,1,.54-.13.65.65,0,0,1,.56.27l.9,1.11a4.57,4.57,0,0,1-1,.9,5.38,5.38,0,0,1-1.14.54,6.18,6.18,0,0,1-1.17.27,8.7,8.7,0,0,1-1.11.07,5.77,5.77,0,0,1-2.05-.35,4.8,4.8,0,0,1-1.67-1.06A4.86,4.86,0,0,1,380,88.89a6.43,6.43,0,0,1-.41-2.42,5.68,5.68,0,0,1,.35-2,4.85,4.85,0,0,1,1-1.62,4.9,4.9,0,0,1,1.61-1.12A5.37,5.37,0,0,1,384.67,81.36Zm.06,2.13a1.84,1.84,0,0,0-1.39.51,2.55,2.55,0,0,0-.66,1.46h3.87a3,3,0,0,0-.1-.73,1.72,1.72,0,0,0-.31-.62,1.69,1.69,0,0,0-.56-.45A2,2,0,0,0,384.73,83.49Z" transform="translate(-58.76 -10.14)"/><path class="cls-8" d="M400.45,80.28a1.38,1.38,0,0,1-.32.35.7.7,0,0,1-.42.12,1,1,0,0,1-.5-.14l-.6-.32a4.45,4.45,0,0,0-.76-.33,3,3,0,0,0-1-.15,2.11,2.11,0,0,0-1.42.41,1.38,1.38,0,0,0-.46,1.09,1,1,0,0,0,.28.73,2.24,2.24,0,0,0,.73.5,8.16,8.16,0,0,0,1,.39l1.2.39a11.12,11.12,0,0,1,1.19.5,4.09,4.09,0,0,1,1,.74,3.73,3.73,0,0,1,.74,1.1,4,4,0,0,1,.28,1.55,5.17,5.17,0,0,1-.35,1.9,4.51,4.51,0,0,1-2.66,2.56,6.13,6.13,0,0,1-2.21.37,6.62,6.62,0,0,1-1.39-.14,7.85,7.85,0,0,1-1.36-.39,7.14,7.14,0,0,1-1.24-.61,5.06,5.06,0,0,1-1-.77l1-1.59a.79.79,0,0,1,.31-.29.89.89,0,0,1,.43-.11,1.17,1.17,0,0,1,.6.19l.69.42a4.6,4.6,0,0,0,.89.42,3.2,3.2,0,0,0,1.18.2A2.25,2.25,0,0,0,397.8,89a1.55,1.55,0,0,0,.51-1.29,1.26,1.26,0,0,0-.28-.83,2.46,2.46,0,0,0-.74-.53,6.19,6.19,0,0,0-1-.36l-1.19-.36a8.22,8.22,0,0,1-1.19-.48,3.68,3.68,0,0,1-1-.75,3.48,3.48,0,0,1-.73-1.16,4.55,4.55,0,0,1-.28-1.72,4.09,4.09,0,0,1,.33-1.6,4.22,4.22,0,0,1,1-1.39,4.75,4.75,0,0,1,1.57-1,5.87,5.87,0,0,1,2.13-.37,8,8,0,0,1,1.3.11,6.7,6.7,0,0,1,1.21.31,6.86,6.86,0,0,1,1.06.49,4.53,4.53,0,0,1,.89.65Z" transform="translate(-58.76 -10.14)"/><path class="cls-8" d="M405.51,81.33a6.12,6.12,0,0,1,1.24.13,5.38,5.38,0,0,1,1.09.37H411V83a.57.57,0,0,1-.15.42,1.18,1.18,0,0,1-.49.23l-.76.17a3.12,3.12,0,0,1,.14.93,3,3,0,0,1-.33,1.4,3.09,3.09,0,0,1-.89,1,4.16,4.16,0,0,1-1.33.67,5.58,5.58,0,0,1-1.65.23,6.56,6.56,0,0,1-.92-.06c-.23.14-.34.29-.34.47a.4.4,0,0,0,.27.38,2.56,2.56,0,0,0,.73.16c.3,0,.64,0,1,0s.78,0,1.18.06a11.58,11.58,0,0,1,1.18.18,3.16,3.16,0,0,1,1,.43,2.13,2.13,0,0,1,.72.77,2.45,2.45,0,0,1,.28,1.24,3.12,3.12,0,0,1-.34,1.38,3.72,3.72,0,0,1-1,1.19,5.16,5.16,0,0,1-1.62.84,7.08,7.08,0,0,1-2.2.32,8.12,8.12,0,0,1-2.11-.24,5,5,0,0,1-1.47-.6,2.46,2.46,0,0,1-.86-.87,2,2,0,0,1-.28-1,1.67,1.67,0,0,1,.42-1.16,2.74,2.74,0,0,1,1.15-.75,1.67,1.67,0,0,1-.56-.59,1.78,1.78,0,0,1-.21-.91,1.42,1.42,0,0,1,.08-.48,1.56,1.56,0,0,1,.25-.5,2.29,2.29,0,0,1,.43-.46,3.3,3.3,0,0,1,.62-.39,3.35,3.35,0,0,1-1.28-1.13,3.18,3.18,0,0,1-.13-3.06,3.17,3.17,0,0,1,.9-1.06,4.32,4.32,0,0,1,1.36-.67A5.7,5.7,0,0,1,405.51,81.33Zm2.3,10.91a.58.58,0,0,0-.16-.41,1.06,1.06,0,0,0-.42-.24,2.6,2.6,0,0,0-.62-.13,5.94,5.94,0,0,0-.76,0H405a4.14,4.14,0,0,1-.87-.08,1.73,1.73,0,0,0-.48.45.91.91,0,0,0-.18.55.87.87,0,0,0,.09.4.8.8,0,0,0,.34.31,2.08,2.08,0,0,0,.64.21,5.86,5.86,0,0,0,1,.07,5.69,5.69,0,0,0,1.1-.08,2.36,2.36,0,0,0,.68-.22.91.91,0,0,0,.36-.34A1.09,1.09,0,0,0,407.81,92.24Zm-2.3-6.09a1.41,1.41,0,0,0,1.11-.38,1.44,1.44,0,0,0,.35-1,1.37,1.37,0,0,0-.35-1,1.87,1.87,0,0,0-2.23,0,1.37,1.37,0,0,0-.34,1,1.85,1.85,0,0,0,.08.54,1.16,1.16,0,0,0,.27.44,1.29,1.29,0,0,0,.45.29A1.87,1.87,0,0,0,405.51,86.15Z" transform="translate(-58.76 -10.14)"/><path class="cls-8" d="M415.61,81.36a6.18,6.18,0,0,1,2.15.36,4.66,4.66,0,0,1,1.66,1.07,4.73,4.73,0,0,1,1.08,1.67,6,6,0,0,1,.39,2.21,6.08,6.08,0,0,1-.39,2.24,4.9,4.9,0,0,1-1.08,1.69,4.8,4.8,0,0,1-1.66,1.07,6.49,6.49,0,0,1-4.32,0,4.88,4.88,0,0,1-1.68-1.07,4.78,4.78,0,0,1-1.09-1.69,6.09,6.09,0,0,1-.38-2.24,6,6,0,0,1,.38-2.21,4.61,4.61,0,0,1,1.09-1.67,4.74,4.74,0,0,1,1.68-1.07A6.21,6.21,0,0,1,415.61,81.36Zm0,8.38a1.76,1.76,0,0,0,1.57-.75,5.42,5.42,0,0,0,0-4.59,1.76,1.76,0,0,0-1.57-.75,1.8,1.8,0,0,0-1.61.75A5.42,5.42,0,0,0,414,89,1.8,1.8,0,0,0,415.61,89.74Z" transform="translate(-58.76 -10.14)"/><path class="cls-8" d="M420.67,90.31a1.67,1.67,0,0,1,.13-.67,1.64,1.64,0,0,1,.37-.53,1.66,1.66,0,0,1,.56-.37,1.75,1.75,0,0,1,.7-.13,1.8,1.8,0,0,1,.69.13,1.76,1.76,0,0,1,.56.37,1.8,1.8,0,0,1,.37.53,1.67,1.67,0,0,1,.14.67,1.72,1.72,0,0,1-.14.68,1.9,1.9,0,0,1-.37.55,1.71,1.71,0,0,1-.56.35,1.81,1.81,0,0,1-.69.14,1.75,1.75,0,0,1-.7-.14,1.61,1.61,0,0,1-.56-.35,1.69,1.69,0,0,1-.5-1.23Z" transform="translate(-58.76 -10.14)"/><path class="cls-8" d="M434.49,91.88a.83.83,0,0,1-.49-.13.64.64,0,0,1-.27-.38l-.24-.8a7.22,7.22,0,0,1-.65.6,3.93,3.93,0,0,1-1.59.77,4.34,4.34,0,0,1-1,.1,3.19,3.19,0,0,1-1.5-.36,3.26,3.26,0,0,1-1.19-1,5,5,0,0,1-.79-1.66,8.15,8.15,0,0,1-.28-2.25,6.78,6.78,0,0,1,.32-2.15,5.21,5.21,0,0,1,.9-1.72,4.33,4.33,0,0,1,1.41-1.14,4,4,0,0,1,1.81-.41,3.4,3.4,0,0,1,1.35.24,4.12,4.12,0,0,1,1,.61V76.91h3.1v15Zm-3.14-2.22a2.87,2.87,0,0,0,.61-.06,2.23,2.23,0,0,0,.51-.19,3,3,0,0,0,.43-.29,5.48,5.48,0,0,0,.41-.42V84.29a2.13,2.13,0,0,0-.77-.54,2.42,2.42,0,0,0-.85-.16,1.86,1.86,0,0,0-.79.17,1.72,1.72,0,0,0-.63.55,2.78,2.78,0,0,0-.41,1,6,6,0,0,0-.15,1.44,6.84,6.84,0,0,0,.12,1.39,2.93,2.93,0,0,0,.33.9,1.28,1.28,0,0,0,.52.49A1.35,1.35,0,0,0,431.35,89.66Z" transform="translate(-58.76 -10.14)"/><path class="cls-8" d="M441.92,81.36a5.43,5.43,0,0,1,1.89.31,4.13,4.13,0,0,1,2.43,2.43,5.5,5.5,0,0,1,.34,2,3,3,0,0,1,0,.56.86.86,0,0,1-.1.36.55.55,0,0,1-.22.18,1.12,1.12,0,0,1-.35,0h-6a2.86,2.86,0,0,0,.79,1.89,2.32,2.32,0,0,0,1.64.58,2.88,2.88,0,0,0,.94-.13,3.67,3.67,0,0,0,.69-.29l.56-.29a1.26,1.26,0,0,1,.54-.13.65.65,0,0,1,.56.27l.9,1.11a4.57,4.57,0,0,1-1,.9,5.38,5.38,0,0,1-1.14.54,6.18,6.18,0,0,1-1.17.27,8.7,8.7,0,0,1-1.11.07,5.77,5.77,0,0,1-2.05-.35,4.71,4.71,0,0,1-1.67-1.06,4.86,4.86,0,0,1-1.13-1.74,6.42,6.42,0,0,1-.42-2.42,5.46,5.46,0,0,1,.36-2,4.85,4.85,0,0,1,1-1.62,4.9,4.9,0,0,1,1.61-1.12A5.36,5.36,0,0,1,441.92,81.36Zm.07,2.13a1.88,1.88,0,0,0-1.4.51,2.61,2.61,0,0,0-.65,1.46h3.86a3,3,0,0,0-.09-.73,1.72,1.72,0,0,0-.31-.62,1.63,1.63,0,0,0-.57-.45A1.93,1.93,0,0,0,442,83.49Z" transform="translate(-58.76 -10.14)"/><path class="cls-8" d="M450.25,76.91v15h-3.11v-15Z" transform="translate(-58.76 -10.14)"/><path class="cls-8" d="M463.34,77.31v2.6h-6v3.4h4.58v2.5h-4.58v3.48h6v2.59H454V77.31Z" transform="translate(-58.76 -10.14)"/><path class="cls-8" d="M470.28,83.79a.78.78,0,0,1-.25.26.63.63,0,0,1-.35.08,1.19,1.19,0,0,1-.44-.09l-.47-.21a4.86,4.86,0,0,0-.58-.2,2.65,2.65,0,0,0-.73-.09,1.54,1.54,0,0,0-.9.22.73.73,0,0,0-.32.62.64.64,0,0,0,.21.49,2.27,2.27,0,0,0,.54.33,6.26,6.26,0,0,0,.77.27l.88.29a8.64,8.64,0,0,1,.88.38,3,3,0,0,1,.77.53,2.36,2.36,0,0,1,.55.76,2.54,2.54,0,0,1,.2,1.08,3.46,3.46,0,0,1-.28,1.42,2.86,2.86,0,0,1-.83,1.12,4,4,0,0,1-1.37.74,6.29,6.29,0,0,1-1.88.25,6.41,6.41,0,0,1-1.06-.09,7,7,0,0,1-1-.28,5.11,5.11,0,0,1-.92-.4,3.68,3.68,0,0,1-.72-.51l.72-1.13a1.06,1.06,0,0,1,.31-.32.84.84,0,0,1,.47-.11,1,1,0,0,1,.49.11l.46.26a3.6,3.6,0,0,0,.59.26,2.47,2.47,0,0,0,.84.13,2.1,2.1,0,0,0,.61-.08,1,1,0,0,0,.4-.21.68.68,0,0,0,.22-.29.72.72,0,0,0,.07-.33.69.69,0,0,0-.21-.51,1.92,1.92,0,0,0-.55-.34,5.27,5.27,0,0,0-.77-.27c-.29-.08-.59-.18-.89-.29a6.15,6.15,0,0,1-.88-.38,3.13,3.13,0,0,1-.78-.57,2.71,2.71,0,0,1-.55-.85,3.09,3.09,0,0,1-.21-1.21,3.18,3.18,0,0,1,.26-1.25,2.89,2.89,0,0,1,.76-1,4,4,0,0,1,1.28-.71,6.22,6.22,0,0,1,2.89-.16,5.61,5.61,0,0,1,1,.27,5.5,5.5,0,0,1,.84.43,3.3,3.3,0,0,1,.67.54Z" transform="translate(-58.76 -10.14)"/><path class="cls-8" d="M475.06,92a3.73,3.73,0,0,1-1.3-.21,2.53,2.53,0,0,1-1.54-1.57A3.77,3.77,0,0,1,472,89V83.65h-.88a.61.61,0,0,1-.41-.15.6.6,0,0,1-.17-.46V81.83l1.65-.32.61-2.53a.62.62,0,0,1,.68-.48h1.63v3h2.51v2.11h-2.51V88.8a1,1,0,0,0,.17.6.57.57,0,0,0,.5.23,1.17,1.17,0,0,0,.29,0,.93.93,0,0,0,.2-.08l.16-.08a.48.48,0,0,1,.18,0,.38.38,0,0,1,.22.07.71.71,0,0,1,.17.2l.94,1.47a4.09,4.09,0,0,1-1.35.68A5.33,5.33,0,0,1,475.06,92Z" transform="translate(-58.76 -10.14)"/><path class="cls-8" d="M482.54,81.36a5.43,5.43,0,0,1,1.89.31,4.13,4.13,0,0,1,2.43,2.43,5.5,5.5,0,0,1,.34,2,4.17,4.17,0,0,1,0,.56.85.85,0,0,1-.11.36.46.46,0,0,1-.21.18,1.16,1.16,0,0,1-.35,0h-6a3,3,0,0,0,.79,1.89,2.36,2.36,0,0,0,1.65.58,2.86,2.86,0,0,0,.93-.13,3.78,3.78,0,0,0,.7-.29l.56-.29a1.25,1.25,0,0,1,.53-.13.63.63,0,0,1,.56.27l.9,1.11a4.53,4.53,0,0,1-1,.9,5.38,5.38,0,0,1-1.14.54,6.18,6.18,0,0,1-1.17.27,8.74,8.74,0,0,1-1.12.07,5.76,5.76,0,0,1-2-.35A4.71,4.71,0,0,1,479,90.63a4.86,4.86,0,0,1-1.13-1.74,6.42,6.42,0,0,1-.42-2.42,5.46,5.46,0,0,1,.36-2,4.85,4.85,0,0,1,1-1.62,4.9,4.9,0,0,1,1.61-1.12A5.36,5.36,0,0,1,482.54,81.36Zm.06,2.13a1.87,1.87,0,0,0-1.39.51,2.68,2.68,0,0,0-.66,1.46h3.87a3,3,0,0,0-.09-.73,1.72,1.72,0,0,0-.31-.62,1.63,1.63,0,0,0-.57-.45A2,2,0,0,0,482.6,83.49Z" transform="translate(-58.76 -10.14)"/><path class="cls-8" d="M487.66,91.88V81.51h1.84a2,2,0,0,1,.39,0,.71.71,0,0,1,.26.13.6.6,0,0,1,.16.22,1.53,1.53,0,0,1,.09.34l.17,1a5.23,5.23,0,0,1,1.28-1.39,2.62,2.62,0,0,1,1.55-.51,1.8,1.8,0,0,1,1.14.34l-.4,2.28a.44.44,0,0,1-.16.3.51.51,0,0,1-.32.08,2.15,2.15,0,0,1-.4,0,3,3,0,0,0-.58,0,2.14,2.14,0,0,0-1.92,1.31v6.35Z" transform="translate(-58.76 -10.14)"/><path class="cls-8" d="M499.22,81.36a6.1,6.1,0,0,1,2.15.36A4.61,4.61,0,0,1,503,82.79a4.73,4.73,0,0,1,1.08,1.67,6,6,0,0,1,.38,2.21,6.09,6.09,0,0,1-.38,2.24A4.9,4.9,0,0,1,503,90.6a4.75,4.75,0,0,1-1.67,1.07,5.88,5.88,0,0,1-2.15.37,6,6,0,0,1-2.16-.37,4.88,4.88,0,0,1-1.68-1.07,4.78,4.78,0,0,1-1.09-1.69,6.08,6.08,0,0,1-.39-2.24,6,6,0,0,1,.39-2.21,4.61,4.61,0,0,1,1.09-1.67,4.74,4.74,0,0,1,1.68-1.07A6.2,6.2,0,0,1,499.22,81.36Zm0,8.38A1.77,1.77,0,0,0,500.8,89a5.52,5.52,0,0,0,0-4.59,1.77,1.77,0,0,0-1.58-.75,1.81,1.81,0,0,0-1.61.75,5.42,5.42,0,0,0,0,4.59A1.81,1.81,0,0,0,499.22,89.74Z" transform="translate(-58.76 -10.14)"/></svg>