<svg id="icons" enable-background="new 0 0 64 64" height="512" viewBox="0 0 64 64" width="512" xmlns="http://www.w3.org/2000/svg"><g><g><g><path d="m31.985 21.004c-.084 0-.168-.011-.25-.032l-30.984-8c-.441-.113-.75-.512-.75-.968s.309-.854.75-.968l30.984-8.004c.164-.043.336-.043.5 0l30.998 8.004c.441.113.75.512.75.968s-.309.854-.75.969l-30.998 8c-.082.02-.166.031-.25.031zm-26.985-9 26.985 6.967 26.997-6.967-26.997-6.971z"/></g><g><path d="m12.994 34.012c-.553 0-1-.448-1-1l.006-17.91c0-.553.448-1 1-1 .553 0 1 .448 1 1l-.006 17.91c0 .552-.448 1-1 1z"/></g><g><path d="m50.99 34.012c-.553 0-1-.447-1-1v-17.916c0-.553.447-1 1-1s1 .447 1 1v17.916c0 .552-.447 1-1 1z"/></g><g><path d="m62.999 23.018c-.553 0-1-.447-1-1v-10.014c0-.553.447-1 1-1s1 .447 1 1v10.014c0 .552-.447 1-1 1z"/></g><g><path d="m62.97 13.004h-30.998c-.553 0-1-.447-1-1s.447-1 1-1h30.998c.553 0 1 .447 1 1s-.448 1-1 1z"/></g></g><g><path d="m50.99 34.012h-37.996c-.553 0-1-.447-1-1s.447-1 1-1h37.996c.553 0 1 .447 1 1s-.447 1-1 1z"/></g><g><path d="m32 61c-11.579 0-21-9.421-21-21 0-2.524.443-4.993 1.318-7.338.192-.518.771-.778 1.286-.587.518.192.78.769.587 1.286-.79 2.12-1.191 4.354-1.191 6.639 0 10.477 8.523 19 19 19s19-8.523 19-19c0-2.284-.4-4.518-1.191-6.64-.192-.517.071-1.093.589-1.286.514-.189 1.093.07 1.286.589.873 2.345 1.316 4.814 1.316 7.337 0 11.579-9.421 21-21 21z"/></g><g><path d="m32 57c-9.374 0-17-7.626-17-17 0-2.608.575-5.111 1.711-7.438.241-.496.839-.704 1.337-.46.496.242.702.841.46 1.337-1 2.051-1.508 4.258-1.508 6.561 0 8.271 6.729 15 15 15s15-6.729 15-15c0-2.303-.508-4.511-1.508-6.563-.242-.497-.036-1.096.46-1.337.502-.244 1.096-.035 1.337.46 1.136 2.328 1.711 4.832 1.711 7.44 0 9.374-7.626 17-17 17z"/></g><g><path d="m32 45c-2.757 0-5-2.243-5-5s2.243-5 5-5 5 2.243 5 5-2.243 5-5 5zm0-8c-1.654 0-3 1.346-3 3s1.346 3 3 3 3-1.346 3-3-1.346-3-3-3z"/></g><g><path d="m35.006 56.718c-.006 0-.012 0-.018 0-.552-.01-.992-.465-.982-1.018.138-8.014 5.943-14.912 13.806-16.401.552-.101 1.066.254 1.169.796.103.543-.254 1.066-.796 1.169-6.936 1.314-12.058 7.4-12.179 14.472-.01.545-.455.982-1 .982z"/></g><g><path d="m28.994 56.718c-.545 0-.99-.437-1-.982-.121-7.071-5.243-13.157-12.179-14.472-.542-.103-.898-.626-.796-1.169.103-.542.617-.899 1.169-.796 7.862 1.489 13.668 8.388 13.806 16.401.01.553-.431 1.008-.982 1.018-.006 0-.012 0-.018 0z"/></g></g></svg>